<svg xmlns="http://www.w3.org/2000/svg" viewBox="0 0 23.41 29.09"><defs><style>.cls-1{fill:#585857;}</style></defs><title>SAV8 icons</title><g id="Слой_2" data-name="Слой 2"><path class="cls-1" d="M16.76.74c-3.19.86-5.2,3.74-6,6.81A76.51,76.51,0,0,0,8.8,18.76c-.44,0-.89-.09-1.35-.18C-1.48,17,3.52,3.55,8.94,1.21c1.63-.7.14-1.56-1-1.07C1.27,3-3.5,13.55,3.32,18.89A9.2,9.2,0,0,0,8.6,20.74c-.24,2.59-.43,5.18-.61,7.75-.08,1.05,2.48.56,2.54-.31.18-2.53.39-5.05.63-7.57a15.34,15.34,0,0,0,9.56-5.33C24.08,10.86,25.75-1.66,16.76.74Zm4.32,7.91c-.69,5.87-4.59,9.53-9.72,10.08.3-2.68.67-5.36,1.19-8,.28-1.44.6-2.93,1-4.35q1.1-4.24,6.14-3.52C21.43,4.13,21.29,6.85,21.07,8.65Z"/></g></svg>