<svg id="Layer_1" data-name="Layer 1" xmlns="http://www.w3.org/2000/svg" viewBox="0 0 118.46 152.67"><defs><style>.cls-1{fill:#b1b1b0;}.cls-2,.cls-3{fill:none;}.cls-2{stroke:#d9d9d9;stroke-miterlimit:10;stroke-width:7px;}.cls-3{stroke:#76c2d3;stroke-linecap:round;stroke-linejoin:round;stroke-width:6px;}.cls-4{isolation:isolate;}.cls-5{fill:#76c2d3;}.cls-6{fill:#9c9b9b;}.cls-7{fill:#e0a180;}</style></defs><g id="Слой_2" data-name="Слой 2"><circle class="cls-1" cx="107.5" cy="31.53" r="3.25"/><circle class="cls-1" cx="114.96" cy="59.23" r="3.25"/><circle class="cls-1" cx="107.5" cy="86.93" r="3.25"/><circle class="cls-1" cx="3.5" cy="59.23" r="3.25"/><circle class="cls-2" cx="59.23" cy="59.23" r="55.73"/><line class="cls-3" x1="114.99" y1="59.26" x2="3.46" y2="59.26"/><g class="cls-4"><path class="cls-5" d="M49.68,137.9l3.67-.35a4.45,4.45,0,0,0,1.35,2.71,4,4,0,0,0,2.73.87,4.2,4.2,0,0,0,2.74-.77,2.31,2.31,0,0,0,.93-1.81,1.68,1.68,0,0,0-.39-1.12,3.1,3.1,0,0,0-1.36-.81c-.44-.16-1.45-.43-3-.82A10.19,10.19,0,0,1,52.08,134a4.87,4.87,0,0,1-1.72-3.76,4.78,4.78,0,0,1,.81-2.67,5.08,5.08,0,0,1,2.33-1.9,9.38,9.38,0,0,1,3.67-.64,7.89,7.89,0,0,1,5.3,1.54,5.44,5.44,0,0,1,1.86,4.11l-3.77.17a3.2,3.2,0,0,0-1-2.07,3.79,3.79,0,0,0-2.39-.63,4.31,4.31,0,0,0-2.57.67,1.37,1.37,0,0,0-.6,1.16,1.43,1.43,0,0,0,.56,1.13A9.85,9.85,0,0,0,58,132.32a18.86,18.86,0,0,1,4.07,1.35,5.12,5.12,0,0,1,2.06,1.9,5.5,5.5,0,0,1,.75,3,5.56,5.56,0,0,1-.89,3,5.37,5.37,0,0,1-2.53,2.08,10.62,10.62,0,0,1-4.06.68A8.06,8.06,0,0,1,52,142.67,7.11,7.11,0,0,1,49.68,137.9Z"/></g><g class="cls-4"><path class="cls-5" d="M65.9,152.67V141.84H68v10.83Z"/></g><g class="cls-4"><path class="cls-6" d="M54.25,21.92H52.33V14.68a6.65,6.65,0,0,1-2.48,1.46V14.39a5.43,5.43,0,0,0,1.63-.93,3.55,3.55,0,0,0,1.21-1.6h1.56Z"/><path class="cls-6" d="M62.07,20.14v1.78H55.33A4.89,4.89,0,0,1,56,20a13.37,13.37,0,0,1,2.16-2.4A12.74,12.74,0,0,0,59.74,16a2.09,2.09,0,0,0,.4-1.18,1.32,1.32,0,0,0-.35-1,1.48,1.48,0,0,0-1.91,0A1.94,1.94,0,0,0,57.47,15l-1.91-.2a3.13,3.13,0,0,1,1.07-2.27,3.64,3.64,0,0,1,2.26-.69,3.22,3.22,0,0,1,2.33.8,2.59,2.59,0,0,1,.85,2,3.52,3.52,0,0,1-.24,1.29,5.79,5.79,0,0,1-.77,1.28A15.48,15.48,0,0,1,59.8,18.5c-.61.55-1,.92-1.15,1.1a3.56,3.56,0,0,0-.4.54Z"/></g><g class="cls-4"><path class="cls-6" d="M81.33,25.6H79.41V18.36a6.65,6.65,0,0,1-2.48,1.46V18.07a5.43,5.43,0,0,0,1.63-.93,3.55,3.55,0,0,0,1.21-1.6h1.56Z"/></g><g class="cls-4"><path class="cls-6" d="M12.07,61.77l1.86-.2a1.31,1.31,0,0,0,.35.84,1.07,1.07,0,0,0,.76.27,1.22,1.22,0,0,0,1-.55,4.53,4.53,0,0,0,.53-2.26,2.28,2.28,0,0,1-1.81.84,2.7,2.7,0,0,1-2-.92,3.32,3.32,0,0,1-.86-2.37A3.39,3.39,0,0,1,12.78,55,3.07,3.07,0,0,1,15.09,54a3.1,3.1,0,0,1,2.5,1.18,6.09,6.09,0,0,1,1,3.88,6.15,6.15,0,0,1-1,4,3.3,3.3,0,0,1-2.65,1.22,2.78,2.78,0,0,1-1.9-.63A3,3,0,0,1,12.07,61.77Zm4.34-4.19A2.24,2.24,0,0,0,16,56.13a1.28,1.28,0,0,0-1-.51,1.12,1.12,0,0,0-.89.42,2.87,2.87,0,0,0,0,2.8,1.2,1.2,0,0,0,1,.46,1.18,1.18,0,0,0,.93-.44A1.87,1.87,0,0,0,16.41,57.58Z"/></g><g class="cls-4"><path class="cls-6" d="M20.89,81.52a2.27,2.27,0,0,1-1.08-.86,2.24,2.24,0,0,1-.34-1.21,2.42,2.42,0,0,1,.78-1.85,3.14,3.14,0,0,1,2.23-.73,3.15,3.15,0,0,1,2.22.73,2.43,2.43,0,0,1,.79,1.85,2.11,2.11,0,0,1-.37,1.24,2.28,2.28,0,0,1-1,.83,2.71,2.71,0,0,1,1.27,1A2.58,2.58,0,0,1,25.81,84a3,3,0,0,1-.89,2.26,3.2,3.2,0,0,1-2.35.87,3.57,3.57,0,0,1-2.28-.72,2.82,2.82,0,0,1-1.07-2.32,2.88,2.88,0,0,1,.4-1.5A2.63,2.63,0,0,1,20.89,81.52Zm.22,2.36a1.78,1.78,0,0,0,.41,1.24,1.33,1.33,0,0,0,1,.44,1.27,1.27,0,0,0,1-.43,1.75,1.75,0,0,0,.39-1.23,1.61,1.61,0,0,0-.4-1.13,1.32,1.32,0,0,0-1-.43,1.19,1.19,0,0,0-1.05.49A1.77,1.77,0,0,0,21.11,83.88Zm.18-4.29a1.21,1.21,0,0,0,.32.89,1.31,1.31,0,0,0,1.74,0,1.22,1.22,0,0,0,.33-.9,1.12,1.12,0,0,0-1.18-1.19,1.13,1.13,0,0,0-1.21,1.2Z"/></g><g class="cls-4"><path class="cls-6" d="M35.06,92.58V90.79h6.57v1.4A10.3,10.3,0,0,0,40,94.49a13,13,0,0,0-1.28,3.18,11.76,11.76,0,0,0-.44,3H36.41a12.82,12.82,0,0,1,.86-4.24,14.09,14.09,0,0,1,2.16-3.86Z"/></g><g class="cls-4"><path class="cls-7" d="M21,42.23h-2.2V34A7.59,7.59,0,0,1,16,35.62v-2a6.26,6.26,0,0,0,1.86-1.07,4,4,0,0,0,1.39-1.83H21Z"/><path class="cls-7" d="M26.22,30.73a3.13,3.13,0,0,1,2.6,1.19c.75.93,1.12,2.49,1.12,4.66s-.38,3.73-1.13,4.67a3.13,3.13,0,0,1-2.59,1.18,3.28,3.28,0,0,1-2.7-1.29c-.68-.86-1-2.38-1-4.58a7.57,7.57,0,0,1,1.13-4.66A3.12,3.12,0,0,1,26.22,30.73Zm0,1.82a1.14,1.14,0,0,0-.71.25,1.77,1.77,0,0,0-.49.91,12.78,12.78,0,0,0-.22,2.87,12.19,12.19,0,0,0,.2,2.77,2,2,0,0,0,.51,1,1.08,1.08,0,0,0,.71.25,1.1,1.1,0,0,0,.71-.25,1.66,1.66,0,0,0,.48-.91,11.86,11.86,0,0,0,.23-2.86,12.88,12.88,0,0,0-.2-2.77,2.08,2.08,0,0,0-.51-1A1.16,1.16,0,0,0,26.22,32.55Z"/></g><g class="cls-4"><path class="cls-6" d="M36.73,25.6H34.81V18.36a6.65,6.65,0,0,1-2.48,1.46V18.07A5.43,5.43,0,0,0,34,17.14a3.55,3.55,0,0,0,1.21-1.6h1.56Z"/><path class="cls-6" d="M42.2,25.6H40.28V18.36a6.65,6.65,0,0,1-2.48,1.46V18.07a5.47,5.47,0,0,0,1.64-.93,3.62,3.62,0,0,0,1.21-1.6H42.2Z"/></g><g class="cls-4"><path class="cls-6" d="M99.76,61.43l1.86-.22a1.69,1.69,0,0,0,.47,1.08,1.33,1.33,0,0,0,1,.38,1.3,1.3,0,0,0,1-.45,1.76,1.76,0,0,0,.41-1.22,1.64,1.64,0,0,0-.39-1.15,1.25,1.25,0,0,0-1-.42,3.67,3.67,0,0,0-.89.14l.22-1.56a1.71,1.71,0,0,0,1.19-.34,1.22,1.22,0,0,0,.41-1,1.09,1.09,0,0,0-.3-.8,1.1,1.1,0,0,0-.8-.3,1.18,1.18,0,0,0-.85.34,1.62,1.62,0,0,0-.42,1l-1.77-.3a3.87,3.87,0,0,1,.56-1.46,2.52,2.52,0,0,1,1-.85A3.43,3.43,0,0,1,103,54a3,3,0,0,1,2.27.9,2.29,2.29,0,0,1-.74,3.77,2.37,2.37,0,0,1,1.38.83,2.44,2.44,0,0,1,.52,1.55,3,3,0,0,1-1,2.25,3.31,3.31,0,0,1-2.4.93,3.28,3.28,0,0,1-2.25-.78A3,3,0,0,1,99.76,61.43Z"/></g><g class="cls-4"><path class="cls-6" d="M100.56,39v1.78H93.83a4.59,4.59,0,0,1,.66-1.92,12.62,12.62,0,0,1,2.16-2.4,14.41,14.41,0,0,0,1.59-1.64,2.15,2.15,0,0,0,.39-1.18,1.35,1.35,0,0,0-.34-1,1.33,1.33,0,0,0-1-.34,1.28,1.28,0,0,0-1,.36A1.83,1.83,0,0,0,96,33.83l-1.92-.2a3.17,3.17,0,0,1,1.08-2.27,3.59,3.59,0,0,1,2.25-.69,3.22,3.22,0,0,1,2.33.8,2.59,2.59,0,0,1,.85,2,3.52,3.52,0,0,1-.24,1.29A5.43,5.43,0,0,1,99.55,36a12.74,12.74,0,0,1-1.26,1.28c-.6.55-1,.92-1.15,1.1a3.46,3.46,0,0,0-.39.54Z"/></g><g class="cls-4"><path class="cls-6" d="M62.08,99.5l-1.86.21a1.34,1.34,0,0,0-.35-.85,1,1,0,0,0-.75-.27,1.27,1.27,0,0,0-1,.54,4.74,4.74,0,0,0-.53,2.28,2.25,2.25,0,0,1,1.79-.85,2.73,2.73,0,0,1,2.06.92,3.33,3.33,0,0,1,.86,2.36,3.4,3.4,0,0,1-.9,2.47,3.29,3.29,0,0,1-4.82-.25,6,6,0,0,1-1-3.86,6.21,6.21,0,0,1,1-4A3.29,3.29,0,0,1,59.24,97a2.79,2.79,0,0,1,1.89.64A2.93,2.93,0,0,1,62.08,99.5Zm-4.35,4.19a2.16,2.16,0,0,0,.43,1.45,1.26,1.26,0,0,0,1,.51,1.12,1.12,0,0,0,.89-.42,2.08,2.08,0,0,0,.36-1.37,2.18,2.18,0,0,0-.39-1.43,1.19,1.19,0,0,0-1-.45,1.21,1.21,0,0,0-.94.43A1.92,1.92,0,0,0,57.73,103.69Z"/></g><g class="cls-4"><path class="cls-6" d="M78.69,98.1l1.92-.2a1.59,1.59,0,0,0,.48,1,1.32,1.32,0,0,0,2-.11,2.19,2.19,0,0,0,.42-1.47A2,2,0,0,0,83,96,1.36,1.36,0,0,0,82,95.5a2,2,0,0,0-1.49.74L78.92,96l1-5.22H85v1.8H81.37l-.31,1.7A3,3,0,0,1,82.38,94a2.87,2.87,0,0,1,2.16.93,3.33,3.33,0,0,1,.89,2.42,3.58,3.58,0,0,1-.72,2.2A3.16,3.16,0,0,1,82,100.85a3.4,3.4,0,0,1-2.26-.74A3.09,3.09,0,0,1,78.69,98.1Z"/></g><g class="cls-4"><path class="cls-6" d="M97.84,85.81v-2h-4.1V82.11l4.35-6.36H99.7V82.1H101v1.69H99.7v2Zm0-3.71V78.68l-2.3,3.42Z"/></g><circle class="cls-1" cx="59.23" cy="3.43" r="3.25"/><circle class="cls-1" cx="87.06" cy="10.96" r="3.25"/><circle class="cls-1" cx="87.06" cy="107.07" r="3.25"/><circle class="cls-1" cx="60.31" cy="115.03" r="3.25"/><circle class="cls-1" cx="31.56" cy="107.44" r="3.25"/><circle class="cls-1" cx="11.44" cy="87.81" r="3.25"/><circle class="cls-1" cx="10.74" cy="31.24" r="3.25"/><circle class="cls-1" cx="31.22" cy="10.96" r="3.25"/></g></svg>