<svg id="Layer_1" data-name="Layer 1" xmlns="http://www.w3.org/2000/svg" viewBox="0 0 118.46 152.86"><defs><style>.cls-1{isolation:isolate;}.cls-2{fill:#e0a180;}.cls-3{fill:none;stroke:#d9d9d9;stroke-miterlimit:10;stroke-width:7px;}.cls-4{fill:#9c9b9b;}.cls-5{fill:#b1b1b0;}</style></defs><g id="Слой_2" data-name="Слой 2"><g class="cls-1"><path class="cls-2" d="M46.68,144V125.3h7.94a13.46,13.46,0,0,1,4.35.51,4.25,4.25,0,0,1,2.17,1.79,5.42,5.42,0,0,1,.82,2.94A5,5,0,0,1,60.72,134,6,6,0,0,1,57,135.74a8.91,8.91,0,0,1,2,1.56,20.31,20.31,0,0,1,2.15,3L63.47,144H59l-2.72-4.06a27.18,27.18,0,0,0-2-2.75,2.91,2.91,0,0,0-1.14-.78,6.19,6.19,0,0,0-1.89-.21h-.77V144Zm3.77-10.78h2.79a14,14,0,0,0,3.39-.23,2,2,0,0,0,1.06-.79,2.46,2.46,0,0,0,.38-1.4,2.26,2.26,0,0,0-.5-1.52,2.29,2.29,0,0,0-1.42-.73c-.31-.05-1.23-.07-2.76-.07H50.45Z" transform="translate(0.25)"/></g><g class="cls-1"><path class="cls-2" d="M68.84,152.67H66.76v-7.82a7.28,7.28,0,0,1-2.68,1.57v-1.88a6.12,6.12,0,0,0,1.76-1,3.88,3.88,0,0,0,1.31-1.74h1.69Z" transform="translate(0.25)"/><path class="cls-2" d="M73.72,146.83a2.35,2.35,0,0,1-1.54-2.24,2.62,2.62,0,0,1,.85-2,4,4,0,0,1,4.8,0,2.62,2.62,0,0,1,.85,2,2.37,2.37,0,0,1-.39,1.34,2.47,2.47,0,0,1-1.1.9,2.89,2.89,0,0,1,1.37,1,2.77,2.77,0,0,1,.47,1.61,3.26,3.26,0,0,1-1,2.43,3.47,3.47,0,0,1-2.55.94,3.87,3.87,0,0,1-2.46-.77,3.26,3.26,0,0,1-.72-4.13A2.74,2.74,0,0,1,73.72,146.83Zm.24,2.55a1.86,1.86,0,0,0,.44,1.33,1.4,1.4,0,0,0,1.09.48,1.38,1.38,0,0,0,1.07-.46A1.91,1.91,0,0,0,77,149.4a1.77,1.77,0,0,0-.43-1.23,1.46,1.46,0,0,0-1.09-.46,1.3,1.3,0,0,0-1.13.53A1.92,1.92,0,0,0,74,149.38Zm.19-4.65a1.31,1.31,0,0,0,.35,1,1.26,1.26,0,0,0,.93.35,1.21,1.21,0,0,0,1.3-1.32,1.2,1.2,0,0,0-1.27-1.29,1.3,1.3,0,0,0-1,.36A1.28,1.28,0,0,0,74.15,144.73Z" transform="translate(0.25)"/><path class="cls-2" d="M83.86,141.79a3,3,0,0,1,2.46,1.13c.71.88,1.06,2.35,1.06,4.41a7.2,7.2,0,0,1-1.06,4.42,3,3,0,0,1-2.46,1.1,3.11,3.11,0,0,1-2.55-1.21c-.64-.81-1-2.26-1-4.33a7.18,7.18,0,0,1,1.06-4.41A3,3,0,0,1,83.86,141.79Zm0,1.73a1,1,0,0,0-.67.24,1.58,1.58,0,0,0-.46.86,12.05,12.05,0,0,0-.21,2.71,11.74,11.74,0,0,0,.19,2.62,1.85,1.85,0,0,0,.49,1,1.07,1.07,0,0,0,1.34,0A1.57,1.57,0,0,0,85,150a11.24,11.24,0,0,0,.22-2.7,12.33,12.33,0,0,0-.19-2.62,1.81,1.81,0,0,0-.49-1A1,1,0,0,0,83.86,143.52Z" transform="translate(0.25)"/><path class="cls-2" d="M88.76,144a2.36,2.36,0,1,1,.69,1.67A2.28,2.28,0,0,1,88.76,144ZM90,144a1.13,1.13,0,1,0,.33-.8A1.09,1.09,0,0,0,90,144Z" transform="translate(0.25)"/></g><circle class="cls-3" cx="59.23" cy="59.23" r="55.73"/><g class="cls-1"><path class="cls-4" d="M56,20.59H54.08V13.35a6.65,6.65,0,0,1-2.48,1.46V13.06a5.43,5.43,0,0,0,1.63-.93,3.55,3.55,0,0,0,1.21-1.6H56Z" transform="translate(0.25)"/><path class="cls-4" d="M63.82,18.81v1.78H57.08a4.89,4.89,0,0,1,.66-1.92,13.37,13.37,0,0,1,2.16-2.4,12.74,12.74,0,0,0,1.59-1.64,2.09,2.09,0,0,0,.4-1.18,1.32,1.32,0,0,0-.35-1,1.48,1.48,0,0,0-1.91,0,1.94,1.94,0,0,0-.41,1.21l-1.91-.2a3.13,3.13,0,0,1,1.07-2.27,3.64,3.64,0,0,1,2.26-.69,3.22,3.22,0,0,1,2.33.8,2.59,2.59,0,0,1,.85,2,3.52,3.52,0,0,1-.24,1.29,5.79,5.79,0,0,1-.77,1.28,15.48,15.48,0,0,1-1.26,1.28c-.61.55-1,.92-1.15,1.1a3.56,3.56,0,0,0-.4.54Z" transform="translate(0.25)"/></g><g class="cls-1"><path class="cls-4" d="M81.08,25.6H79.16V18.36a6.65,6.65,0,0,1-2.48,1.46V18.07a5.43,5.43,0,0,0,1.63-.93,3.55,3.55,0,0,0,1.21-1.6h1.56Z" transform="translate(0.25)"/></g><g class="cls-1"><path class="cls-4" d="M11.82,61.77l1.86-.2a1.31,1.31,0,0,0,.35.84,1.07,1.07,0,0,0,.76.27,1.22,1.22,0,0,0,1-.55,4.53,4.53,0,0,0,.53-2.26,2.28,2.28,0,0,1-1.81.84,2.7,2.7,0,0,1-2-.92,3.32,3.32,0,0,1-.86-2.37A3.39,3.39,0,0,1,12.53,55,3.07,3.07,0,0,1,14.84,54a3.1,3.1,0,0,1,2.5,1.18,6.09,6.09,0,0,1,1,3.88,6.15,6.15,0,0,1-1,4,3.3,3.3,0,0,1-2.65,1.22,2.78,2.78,0,0,1-1.9-.63A3,3,0,0,1,11.82,61.77Zm4.34-4.19a2.24,2.24,0,0,0-.42-1.45,1.28,1.28,0,0,0-1-.51,1.12,1.12,0,0,0-.89.42,2.87,2.87,0,0,0,0,2.8,1.2,1.2,0,0,0,1,.46,1.18,1.18,0,0,0,.93-.44A1.87,1.87,0,0,0,16.16,57.58Z" transform="translate(0.25)"/></g><g class="cls-1"><path class="cls-4" d="M20.64,81.52a2.27,2.27,0,0,1-1.08-.86,2.24,2.24,0,0,1-.34-1.21A2.42,2.42,0,0,1,20,77.6a3.14,3.14,0,0,1,2.23-.73,3.15,3.15,0,0,1,2.22.73,2.43,2.43,0,0,1,.79,1.85,2.11,2.11,0,0,1-.37,1.24,2.28,2.28,0,0,1-1,.83,2.71,2.71,0,0,1,1.27,1A2.58,2.58,0,0,1,25.56,84a3,3,0,0,1-.89,2.26,3.2,3.2,0,0,1-2.35.87A3.57,3.57,0,0,1,20,86.39,2.82,2.82,0,0,1,19,84.07a2.88,2.88,0,0,1,.4-1.5A2.63,2.63,0,0,1,20.64,81.52Zm.22,2.36a1.78,1.78,0,0,0,.41,1.24,1.33,1.33,0,0,0,1,.44,1.27,1.27,0,0,0,1-.43,1.75,1.75,0,0,0,.39-1.23,1.61,1.61,0,0,0-.4-1.13,1.32,1.32,0,0,0-1-.43,1.19,1.19,0,0,0-1.05.49A1.77,1.77,0,0,0,20.86,83.88ZM21,79.59a1.21,1.21,0,0,0,.32.89,1.31,1.31,0,0,0,1.74,0,1.22,1.22,0,0,0,.33-.9,1.12,1.12,0,0,0-1.18-1.19A1.13,1.13,0,0,0,21,79.59Z" transform="translate(0.25)"/></g><g class="cls-1"><path class="cls-2" d="M34.9,91.42v-2h7.51V91a11.77,11.77,0,0,0-1.89,2.62,15.43,15.43,0,0,0-1.47,3.64,13.48,13.48,0,0,0-.49,3.44H36.44a14.7,14.7,0,0,1,1-4.84,16.26,16.26,0,0,1,2.47-4.42Z" transform="translate(0.25)"/></g><g class="cls-1"><path class="cls-4" d="M20,42.23H18V35a6.65,6.65,0,0,1-2.48,1.46V34.7a5.43,5.43,0,0,0,1.63-.93,3.55,3.55,0,0,0,1.21-1.6H20Z" transform="translate(0.25)"/><path class="cls-4" d="M24.53,32.17a2.7,2.7,0,0,1,2.27,1,6.57,6.57,0,0,1,1,4.08,6.72,6.72,0,0,1-1,4.09,2.75,2.75,0,0,1-2.27,1,2.86,2.86,0,0,1-2.36-1.12,6.63,6.63,0,0,1-.9-4,6.61,6.61,0,0,1,1-4.08A2.74,2.74,0,0,1,24.53,32.17Zm0,1.59a.94.94,0,0,0-.62.22,1.47,1.47,0,0,0-.43.8,11.09,11.09,0,0,0-.2,2.51,10.77,10.77,0,0,0,.18,2.42,1.74,1.74,0,0,0,.45.88,1,1,0,0,0,1.24,0,1.54,1.54,0,0,0,.42-.8,10.43,10.43,0,0,0,.2-2.5,10.82,10.82,0,0,0-.18-2.43,1.67,1.67,0,0,0-.44-.88A.94.94,0,0,0,24.53,33.76Z" transform="translate(0.25)"/></g><g class="cls-1"><path class="cls-4" d="M36.48,25.6H34.56V18.36a6.65,6.65,0,0,1-2.48,1.46V18.07a5.43,5.43,0,0,0,1.63-.93,3.55,3.55,0,0,0,1.21-1.6h1.56Z" transform="translate(0.25)"/><path class="cls-4" d="M42,25.6H40V18.36a6.65,6.65,0,0,1-2.48,1.46V18.07a5.47,5.47,0,0,0,1.64-.93,3.62,3.62,0,0,0,1.21-1.6H42Z" transform="translate(0.25)"/></g><g class="cls-1"><path class="cls-4" d="M99.51,61.43l1.86-.22a1.69,1.69,0,0,0,.47,1.08,1.33,1.33,0,0,0,1,.38,1.3,1.3,0,0,0,1-.45A1.76,1.76,0,0,0,104.2,61a1.64,1.64,0,0,0-.39-1.15,1.25,1.25,0,0,0-1-.42,3.67,3.67,0,0,0-.89.14l.22-1.56a1.71,1.71,0,0,0,1.19-.34,1.22,1.22,0,0,0,.41-1,1.09,1.09,0,0,0-.3-.8,1.1,1.1,0,0,0-.8-.3,1.18,1.18,0,0,0-.85.34,1.62,1.62,0,0,0-.42,1l-1.77-.3a3.87,3.87,0,0,1,.56-1.46,2.52,2.52,0,0,1,1-.85,3.43,3.43,0,0,1,1.49-.31,3,3,0,0,1,2.27.9,2.29,2.29,0,0,1-.74,3.77,2.37,2.37,0,0,1,1.38.83,2.44,2.44,0,0,1,.52,1.55,3,3,0,0,1-1,2.25,3.31,3.31,0,0,1-2.4.93,3.28,3.28,0,0,1-2.25-.78A3,3,0,0,1,99.51,61.43Z" transform="translate(0.25)"/></g><g class="cls-1"><path class="cls-4" d="M100.31,39v1.78H93.58a4.59,4.59,0,0,1,.66-1.92,12.62,12.62,0,0,1,2.16-2.4A14.41,14.41,0,0,0,98,34.77a2.15,2.15,0,0,0,.39-1.18,1.35,1.35,0,0,0-.34-1,1.33,1.33,0,0,0-1-.34,1.28,1.28,0,0,0-1,.36,1.83,1.83,0,0,0-.41,1.21l-1.92-.2a3.17,3.17,0,0,1,1.08-2.27,3.59,3.59,0,0,1,2.25-.69,3.22,3.22,0,0,1,2.33.8,2.59,2.59,0,0,1,.85,2,3.52,3.52,0,0,1-.24,1.29A5.43,5.43,0,0,1,99.3,36,12.74,12.74,0,0,1,98,37.31c-.6.55-1,.92-1.15,1.1a3.46,3.46,0,0,0-.39.54Z" transform="translate(0.25)"/></g><g class="cls-1"><path class="cls-4" d="M62.83,99.5,61,99.71a1.34,1.34,0,0,0-.35-.85,1,1,0,0,0-.75-.27,1.27,1.27,0,0,0-1,.54,4.74,4.74,0,0,0-.53,2.28,2.25,2.25,0,0,1,1.79-.85,2.73,2.73,0,0,1,2.06.92,3.33,3.33,0,0,1,.86,2.36,3.4,3.4,0,0,1-.9,2.47,3.29,3.29,0,0,1-4.82-.25,6,6,0,0,1-1-3.86,6.21,6.21,0,0,1,1-4A3.29,3.29,0,0,1,60,97a2.79,2.79,0,0,1,1.89.64A2.93,2.93,0,0,1,62.83,99.5Zm-4.35,4.19a2.16,2.16,0,0,0,.43,1.45,1.26,1.26,0,0,0,1,.51,1.12,1.12,0,0,0,.89-.42,2.08,2.08,0,0,0,.36-1.37,2.18,2.18,0,0,0-.39-1.43,1.19,1.19,0,0,0-1-.45,1.21,1.21,0,0,0-.94.43A1.92,1.92,0,0,0,58.48,103.69Z" transform="translate(0.25)"/></g><g class="cls-1"><path class="cls-4" d="M78.44,98.1l1.92-.2a1.59,1.59,0,0,0,.48,1,1.32,1.32,0,0,0,2-.11,2.19,2.19,0,0,0,.42-1.47A2,2,0,0,0,82.79,96a1.36,1.36,0,0,0-1.07-.47,2,2,0,0,0-1.49.74L78.67,96l1-5.22h5.08v1.8H81.12l-.31,1.7A3,3,0,0,1,82.13,94a2.87,2.87,0,0,1,2.16.93,3.33,3.33,0,0,1,.89,2.42,3.58,3.58,0,0,1-.72,2.2,3.16,3.16,0,0,1-2.71,1.33,3.4,3.4,0,0,1-2.26-.74A3.09,3.09,0,0,1,78.44,98.1Z" transform="translate(0.25)"/></g><g class="cls-1"><path class="cls-4" d="M97.59,85.81v-2h-4.1V82.11l4.35-6.36h1.61V82.1h1.25v1.69H99.45v2Zm0-3.71V78.68l-2.3,3.42Z" transform="translate(0.25)"/></g><circle class="cls-5" cx="59.23" cy="3.43" r="3.25"/><circle class="cls-5" cx="87.06" cy="10.96" r="3.25"/><circle class="cls-5" cx="107.5" cy="31.53" r="3.25"/><circle class="cls-5" cx="114.96" cy="59.23" r="3.25"/><circle class="cls-5" cx="107.5" cy="86.93" r="3.25"/><circle class="cls-5" cx="87.06" cy="107.07" r="3.25"/><circle class="cls-5" cx="60.31" cy="115.03" r="3.25"/><circle class="cls-5" cx="31.56" cy="107.44" r="3.25"/><circle class="cls-5" cx="11.44" cy="87.81" r="3.25"/><circle class="cls-5" cx="3.5" cy="59.23" r="3.25"/><circle class="cls-5" cx="10.74" cy="31.24" r="3.25"/><circle class="cls-5" cx="31.22" cy="10.96" r="3.25"/></g></svg>