<svg id="Layer_1" data-name="Layer 1" xmlns="http://www.w3.org/2000/svg" viewBox="0 0 118.46 152.67"><defs><style>.cls-1,.cls-4{fill:none;}.cls-1{stroke:#76c2d3;stroke-linecap:round;stroke-linejoin:round;stroke-width:6px;}.cls-2{isolation:isolate;}.cls-3{fill:#76c2d3;}.cls-4{stroke:#d9d9d9;stroke-miterlimit:10;stroke-width:7px;}.cls-5{fill:#9c9b9b;}.cls-6{fill:#e0a180;}.cls-7{fill:#b1b1b0;}</style></defs><g id="Слой_2" data-name="Слой 2"><line class="cls-1" x1="73.57" y1="5.37" x2="44.88" y2="113.15"/><g class="cls-2"><path class="cls-3" d="M50.93,137.72l3.67-.35A4.45,4.45,0,0,0,56,140.08a4,4,0,0,0,2.73.87,4.2,4.2,0,0,0,2.74-.77,2.31,2.31,0,0,0,.93-1.81,1.68,1.68,0,0,0-.39-1.12,3.1,3.1,0,0,0-1.36-.81c-.44-.16-1.45-.43-3-.82a10.18,10.18,0,0,1-4.25-1.85A4.83,4.83,0,0,1,51.61,130a4.76,4.76,0,0,1,.81-2.67,5,5,0,0,1,2.33-1.89,9.2,9.2,0,0,1,3.67-.65,7.89,7.89,0,0,1,5.3,1.54,5.46,5.46,0,0,1,1.86,4.11l-3.77.17a3.2,3.2,0,0,0-1-2.07,3.79,3.79,0,0,0-2.39-.63,4.31,4.31,0,0,0-2.57.67,1.37,1.37,0,0,0-.6,1.16,1.43,1.43,0,0,0,.56,1.13,9.85,9.85,0,0,0,3.47,1.25,18.32,18.32,0,0,1,4.07,1.35,5.12,5.12,0,0,1,2.06,1.9,5.5,5.5,0,0,1,.75,3,5.56,5.56,0,0,1-.89,3,5.37,5.37,0,0,1-2.53,2.08,10.62,10.62,0,0,1-4.06.68,8.11,8.11,0,0,1-5.44-1.64A7.11,7.11,0,0,1,50.93,137.72Z" transform="translate(0.25 0.18)"/></g><g class="cls-2"><path class="cls-3" d="M67.16,152.49V141.66h2.07v10.83Z" transform="translate(0.25 0.18)"/></g><circle class="cls-4" cx="59.23" cy="59.23" r="55.73"/><g class="cls-2"><path class="cls-5" d="M55.5,20.41H53.58V13.17a6.65,6.65,0,0,1-2.48,1.46V12.88A5.43,5.43,0,0,0,52.73,12a3.55,3.55,0,0,0,1.21-1.6H55.5Z" transform="translate(0.25 0.18)"/><path class="cls-5" d="M63.32,18.63v1.78H56.58a4.89,4.89,0,0,1,.66-1.92,13.37,13.37,0,0,1,2.16-2.4A12.74,12.74,0,0,0,61,14.45a2.09,2.09,0,0,0,.4-1.18,1.28,1.28,0,0,0-.35-1,1.26,1.26,0,0,0-.95-.35,1.3,1.3,0,0,0-1,.36,1.94,1.94,0,0,0-.41,1.21l-1.91-.2A3.13,3.13,0,0,1,57.88,11a3.64,3.64,0,0,1,2.26-.69,3.22,3.22,0,0,1,2.33.8,2.59,2.59,0,0,1,.85,2,3.52,3.52,0,0,1-.24,1.29,5.79,5.79,0,0,1-.77,1.28A15.48,15.48,0,0,1,61.05,17c-.61.55-1,.92-1.15,1.1a3.56,3.56,0,0,0-.4.54Z" transform="translate(0.25 0.18)"/></g><g class="cls-2"><path class="cls-6" d="M81.87,27.81h-2.2V19.54a7.59,7.59,0,0,1-2.83,1.66v-2a6.26,6.26,0,0,0,1.86-1.07,4,4,0,0,0,1.39-1.83h1.78Z" transform="translate(0.25 0.18)"/></g><g class="cls-2"><path class="cls-5" d="M11.82,61.59l1.86-.2a1.31,1.31,0,0,0,.35.84,1.07,1.07,0,0,0,.76.27,1.24,1.24,0,0,0,1-.54,4.61,4.61,0,0,0,.53-2.27,2.28,2.28,0,0,1-1.81.84,2.7,2.7,0,0,1-2-.92,3.32,3.32,0,0,1-.86-2.37,3.39,3.39,0,0,1,.91-2.46,3.07,3.07,0,0,1,2.31-.93A3.1,3.1,0,0,1,17.34,55a6.09,6.09,0,0,1,1,3.88,6.15,6.15,0,0,1-1,4,3.3,3.3,0,0,1-2.65,1.22,2.78,2.78,0,0,1-1.9-.63A3,3,0,0,1,11.82,61.59Zm4.34-4.19A2.24,2.24,0,0,0,15.74,56a1.28,1.28,0,0,0-1-.51,1.12,1.12,0,0,0-.89.42,2.87,2.87,0,0,0,0,2.8,1.2,1.2,0,0,0,1,.46,1.18,1.18,0,0,0,.93-.44A1.87,1.87,0,0,0,16.16,57.4Z" transform="translate(0.25 0.18)"/></g><g class="cls-2"><path class="cls-5" d="M20.64,81.34a2.27,2.27,0,0,1-1.08-.86,2.24,2.24,0,0,1-.34-1.21A2.42,2.42,0,0,1,20,77.42a3.14,3.14,0,0,1,2.23-.73,3.15,3.15,0,0,1,2.22.73,2.43,2.43,0,0,1,.79,1.85,2.11,2.11,0,0,1-.37,1.24,2.22,2.22,0,0,1-1,.83,2.71,2.71,0,0,1,1.27,1,2.58,2.58,0,0,1,.44,1.48,3,3,0,0,1-.89,2.26,3.2,3.2,0,0,1-2.35.87A3.57,3.57,0,0,1,20,86.21,2.82,2.82,0,0,1,19,83.89a2.88,2.88,0,0,1,.4-1.5A2.63,2.63,0,0,1,20.64,81.34Zm.22,2.36a1.78,1.78,0,0,0,.41,1.24,1.33,1.33,0,0,0,1,.44,1.29,1.29,0,0,0,1-.42,1.79,1.79,0,0,0,.39-1.24,1.62,1.62,0,0,0-.4-1.13,1.32,1.32,0,0,0-1-.43,1.21,1.21,0,0,0-1.05.49A1.77,1.77,0,0,0,20.86,83.7ZM21,79.41a1.21,1.21,0,0,0,.32.89,1.31,1.31,0,0,0,1.74,0,1.22,1.22,0,0,0,.33-.9,1.12,1.12,0,0,0-1.18-1.19A1.13,1.13,0,0,0,21,79.41Z" transform="translate(0.25 0.18)"/></g><g class="cls-2"><path class="cls-5" d="M34.81,92.4V90.62h6.57V92a10.3,10.3,0,0,0-1.65,2.3,13.16,13.16,0,0,0-1.28,3.18,11.76,11.76,0,0,0-.44,3H36.16A12.82,12.82,0,0,1,37,96.26a14.09,14.09,0,0,1,2.16-3.86Z" transform="translate(0.25 0.18)"/></g><g class="cls-2"><path class="cls-5" d="M20,42.05H18V34.81a6.65,6.65,0,0,1-2.48,1.46V34.52a5.43,5.43,0,0,0,1.63-.93A3.55,3.55,0,0,0,18.39,32H20Z" transform="translate(0.25 0.18)"/><path class="cls-5" d="M24.53,32a2.7,2.7,0,0,1,2.27,1,6.57,6.57,0,0,1,1,4.08,6.72,6.72,0,0,1-1,4.09,2.75,2.75,0,0,1-2.27,1,2.86,2.86,0,0,1-2.36-1.12,6.63,6.63,0,0,1-.9-4,6.61,6.61,0,0,1,1-4.08A2.74,2.74,0,0,1,24.53,32Zm0,1.59a.94.94,0,0,0-.62.22,1.47,1.47,0,0,0-.43.8,11.09,11.09,0,0,0-.2,2.51,10.77,10.77,0,0,0,.18,2.42,1.74,1.74,0,0,0,.45.88,1,1,0,0,0,1.24,0,1.54,1.54,0,0,0,.42-.8,10.43,10.43,0,0,0,.2-2.5,10.82,10.82,0,0,0-.18-2.43,1.67,1.67,0,0,0-.44-.88A.94.94,0,0,0,24.53,33.58Z" transform="translate(0.25 0.18)"/></g><g class="cls-2"><path class="cls-5" d="M36.48,25.42H34.56V18.18a6.65,6.65,0,0,1-2.48,1.46V17.89A5.43,5.43,0,0,0,33.71,17a3.55,3.55,0,0,0,1.21-1.6h1.56Z" transform="translate(0.25 0.18)"/><path class="cls-5" d="M42,25.42H40V18.18a6.65,6.65,0,0,1-2.48,1.46V17.89A5.47,5.47,0,0,0,39.19,17a3.62,3.62,0,0,0,1.21-1.6H42Z" transform="translate(0.25 0.18)"/></g><g class="cls-2"><path class="cls-5" d="M99.51,61.25l1.86-.22a1.69,1.69,0,0,0,.47,1.08,1.33,1.33,0,0,0,1,.38,1.3,1.3,0,0,0,1-.45,1.76,1.76,0,0,0,.41-1.22,1.64,1.64,0,0,0-.39-1.15,1.25,1.25,0,0,0-1-.42,3.67,3.67,0,0,0-.89.14l.22-1.56a1.71,1.71,0,0,0,1.19-.34,1.22,1.22,0,0,0,.41-1,1.09,1.09,0,0,0-.3-.8,1.1,1.1,0,0,0-.8-.3,1.18,1.18,0,0,0-.85.34,1.62,1.62,0,0,0-.42,1l-1.77-.3a3.94,3.94,0,0,1,.56-1.46,2.52,2.52,0,0,1,1-.85,3.43,3.43,0,0,1,1.49-.31,3,3,0,0,1,2.27.9,2.29,2.29,0,0,1-.74,3.77,2.37,2.37,0,0,1,1.38.83,2.44,2.44,0,0,1,.52,1.55,3,3,0,0,1-1,2.25,3.31,3.31,0,0,1-2.4.93,3.28,3.28,0,0,1-2.25-.78A3,3,0,0,1,99.51,61.25Z" transform="translate(0.25 0.18)"/></g><g class="cls-2"><path class="cls-5" d="M100.31,38.77v1.78H93.58a4.59,4.59,0,0,1,.66-1.92,12.62,12.62,0,0,1,2.16-2.4A14.41,14.41,0,0,0,98,34.59a2.15,2.15,0,0,0,.39-1.18,1.35,1.35,0,0,0-.34-1,1.33,1.33,0,0,0-1-.34,1.28,1.28,0,0,0-1,.36,1.81,1.81,0,0,0-.41,1.21l-1.92-.2a3.17,3.17,0,0,1,1.08-2.27,3.59,3.59,0,0,1,2.25-.69,3.22,3.22,0,0,1,2.33.8,2.59,2.59,0,0,1,.85,2,3.52,3.52,0,0,1-.24,1.29,5.43,5.43,0,0,1-.77,1.28A12.74,12.74,0,0,1,98,37.13c-.6.55-1,.92-1.15,1.1a3.46,3.46,0,0,0-.39.54Z" transform="translate(0.25 0.18)"/></g><g class="cls-2"><path class="cls-5" d="M62.83,99.32,61,99.53a1.31,1.31,0,0,0-.35-.85,1,1,0,0,0-.75-.27,1.27,1.27,0,0,0-1,.54,4.74,4.74,0,0,0-.53,2.28,2.25,2.25,0,0,1,1.79-.85,2.73,2.73,0,0,1,2.06.92,3.33,3.33,0,0,1,.86,2.36,3.4,3.4,0,0,1-.9,2.47,3.29,3.29,0,0,1-4.82-.25,6.07,6.07,0,0,1-1-3.86,6.21,6.21,0,0,1,1-4A3.29,3.29,0,0,1,60,96.83a2.79,2.79,0,0,1,1.89.64A2.93,2.93,0,0,1,62.83,99.32Zm-4.35,4.19a2.16,2.16,0,0,0,.43,1.45,1.26,1.26,0,0,0,1,.51,1.12,1.12,0,0,0,.89-.42,2.08,2.08,0,0,0,.36-1.37,2.16,2.16,0,0,0-.39-1.43,1.19,1.19,0,0,0-1-.45,1.21,1.21,0,0,0-.94.43A1.92,1.92,0,0,0,58.48,103.51Z" transform="translate(0.25 0.18)"/></g><g class="cls-2"><path class="cls-5" d="M78.44,97.92l1.92-.2a1.59,1.59,0,0,0,.48,1,1.32,1.32,0,0,0,2-.11,2.19,2.19,0,0,0,.42-1.47,2,2,0,0,0-.42-1.38,1.35,1.35,0,0,0-1.07-.46,2,2,0,0,0-1.49.73l-1.56-.23,1-5.21h5.08v1.79H81.12l-.31,1.71a2.91,2.91,0,0,1,3.48.6,3.33,3.33,0,0,1,.89,2.42,3.58,3.58,0,0,1-.72,2.2,3.16,3.16,0,0,1-2.71,1.33,3.4,3.4,0,0,1-2.26-.74A3.09,3.09,0,0,1,78.44,97.92Z" transform="translate(0.25 0.18)"/></g><g class="cls-2"><path class="cls-5" d="M97.59,85.63v-2h-4.1V81.93l4.35-6.36h1.61v6.35h1.25v1.69H99.45v2Zm0-3.71V78.5l-2.3,3.42Z" transform="translate(0.25 0.18)"/></g><circle class="cls-7" cx="59.23" cy="3.43" r="3.25"/><circle class="cls-7" cx="87.06" cy="10.96" r="3.25"/><circle class="cls-7" cx="107.5" cy="31.52" r="3.25"/><circle class="cls-7" cx="114.96" cy="59.23" r="3.25"/><circle class="cls-7" cx="107.5" cy="86.93" r="3.25"/><circle class="cls-7" cx="87.06" cy="107.07" r="3.25"/><circle class="cls-7" cx="60.31" cy="115.03" r="3.25"/><circle class="cls-7" cx="31.56" cy="107.43" r="3.25"/><circle class="cls-7" cx="11.44" cy="87.81" r="3.25"/><circle class="cls-7" cx="3.5" cy="59.23" r="3.25"/><circle class="cls-7" cx="10.74" cy="31.24" r="3.25"/><circle class="cls-7" cx="31.22" cy="10.96" r="3.25"/></g></svg>