<svg id="Layer_1" data-name="Layer 1" xmlns="http://www.w3.org/2000/svg" viewBox="0 0 118.46 152.86"><defs><style>.cls-1{isolation:isolate;}.cls-2{fill:#e0a180;}.cls-3{fill:none;stroke:#d9d9d9;stroke-miterlimit:10;stroke-width:7px;}.cls-4{fill:#9c9b9b;}.cls-5{fill:#b1b1b0;}</style></defs><g id="Слой_2" data-name="Слой 2"><g class="cls-1"><path class="cls-2" d="M51.9,143.8V125.12h7.94a13.46,13.46,0,0,1,4.35.51,4.25,4.25,0,0,1,2.17,1.79,5.41,5.41,0,0,1,.81,2.94,5,5,0,0,1-1.23,3.47,6,6,0,0,1-3.69,1.73,8.91,8.91,0,0,1,2,1.56,21.08,21.08,0,0,1,2.15,3l2.28,3.64H64.18l-2.72-4.06a27.18,27.18,0,0,0-2-2.75,2.91,2.91,0,0,0-1.14-.78,6.19,6.19,0,0,0-1.89-.21h-.77v7.8ZM55.67,133h2.79a14,14,0,0,0,3.39-.23,2,2,0,0,0,1.06-.79,2.46,2.46,0,0,0,.38-1.4,2.26,2.26,0,0,0-.5-1.52,2.29,2.29,0,0,0-1.42-.73c-.31,0-1.23-.07-2.76-.07H55.67Z" transform="translate(0.25 0.18)"/></g><g class="cls-1"><path class="cls-2" d="M68.79,150l2-.23a1.42,1.42,0,0,0,.38.91,1.13,1.13,0,0,0,.82.3,1.34,1.34,0,0,0,1.09-.59,4.9,4.9,0,0,0,.58-2.46,2.46,2.46,0,0,1-2,.91,2.94,2.94,0,0,1-2.2-1,3.61,3.61,0,0,1-.93-2.57,3.67,3.67,0,0,1,1-2.66,3.32,3.32,0,0,1,2.49-1,3.38,3.38,0,0,1,2.71,1.28,8.9,8.9,0,0,1-.05,8.48,3.57,3.57,0,0,1-2.86,1.31,3,3,0,0,1-2.06-.67A3.3,3.3,0,0,1,68.79,150Zm4.7-4.54a2.42,2.42,0,0,0-.46-1.56,1.37,1.37,0,0,0-1.07-.55,1.19,1.19,0,0,0-1,.45,2.34,2.34,0,0,0-.38,1.49,2.4,2.4,0,0,0,.41,1.54,1.33,1.33,0,0,0,2,0A2.1,2.1,0,0,0,73.49,145.45Z" transform="translate(0.25 0.18)"/><path class="cls-2" d="M80.67,141.61a3,3,0,0,1,2.46,1.13,9.68,9.68,0,0,1,0,8.83,2.93,2.93,0,0,1-2.45,1.1,3.08,3.08,0,0,1-2.55-1.21c-.65-.81-1-2.25-1-4.33a7.25,7.25,0,0,1,1.06-4.41A3,3,0,0,1,80.67,141.61Zm0,1.73a1,1,0,0,0-.67.24,1.58,1.58,0,0,0-.46.86,11.34,11.34,0,0,0-.22,2.71,11.57,11.57,0,0,0,.2,2.62,1.78,1.78,0,0,0,.48.95,1,1,0,0,0,.67.23,1,1,0,0,0,.67-.24,1.58,1.58,0,0,0,.46-.86,12,12,0,0,0,.21-2.7,11.68,11.68,0,0,0-.19-2.62,1.88,1.88,0,0,0-.48-.95A1,1,0,0,0,80.67,143.34Z" transform="translate(0.25 0.18)"/><path class="cls-2" d="M85.57,143.83a2.36,2.36,0,1,1,.69,1.67A2.28,2.28,0,0,1,85.57,143.83Zm1.22,0A1.14,1.14,0,0,0,87.92,145a1.13,1.13,0,1,0,0-2.26,1.14,1.14,0,0,0-1.13,1.13Z" transform="translate(0.25 0.18)"/></g><circle class="cls-3" cx="59.23" cy="59.23" r="55.73"/><g class="cls-1"><path class="cls-4" d="M55.5,21.74H53.58V14.5A6.65,6.65,0,0,1,51.1,16V14.21a5.43,5.43,0,0,0,1.63-.93,3.55,3.55,0,0,0,1.21-1.6H55.5Z" transform="translate(0.25 0.18)"/><path class="cls-4" d="M63.32,20v1.78H56.58a4.89,4.89,0,0,1,.66-1.92,13.37,13.37,0,0,1,2.16-2.4A12.74,12.74,0,0,0,61,15.78a2.09,2.09,0,0,0,.4-1.18,1.28,1.28,0,0,0-.35-1,1.26,1.26,0,0,0-.95-.35,1.3,1.3,0,0,0-1,.36,1.94,1.94,0,0,0-.41,1.21l-1.91-.2a3.13,3.13,0,0,1,1.07-2.27,3.64,3.64,0,0,1,2.26-.69,3.22,3.22,0,0,1,2.33.8,2.59,2.59,0,0,1,.85,2,3.52,3.52,0,0,1-.24,1.29A5.79,5.79,0,0,1,62.31,17a15.48,15.48,0,0,1-1.26,1.28c-.61.55-1,.92-1.15,1.1a3.56,3.56,0,0,0-.4.54Z" transform="translate(0.25 0.18)"/></g><g class="cls-1"><path class="cls-4" d="M81.08,25.42H79.16V18.18a6.65,6.65,0,0,1-2.48,1.46V17.89A5.43,5.43,0,0,0,78.31,17a3.55,3.55,0,0,0,1.21-1.6h1.56Z" transform="translate(0.25 0.18)"/></g><g class="cls-1"><path class="cls-4" d="M11.82,61.59l1.86-.2a1.31,1.31,0,0,0,.35.84,1.07,1.07,0,0,0,.76.27,1.24,1.24,0,0,0,1-.54,4.61,4.61,0,0,0,.53-2.27,2.28,2.28,0,0,1-1.81.84,2.7,2.7,0,0,1-2-.92,3.32,3.32,0,0,1-.86-2.37,3.39,3.39,0,0,1,.91-2.46,3.07,3.07,0,0,1,2.31-.93A3.1,3.1,0,0,1,17.34,55a6.09,6.09,0,0,1,1,3.88,6.15,6.15,0,0,1-1,4,3.3,3.3,0,0,1-2.65,1.22,2.78,2.78,0,0,1-1.9-.63A3,3,0,0,1,11.82,61.59Zm4.34-4.19A2.24,2.24,0,0,0,15.74,56a1.28,1.28,0,0,0-1-.51,1.12,1.12,0,0,0-.89.42,2.87,2.87,0,0,0,0,2.8,1.2,1.2,0,0,0,1,.46,1.18,1.18,0,0,0,.93-.44A1.87,1.87,0,0,0,16.16,57.4Z" transform="translate(0.25 0.18)"/></g><g class="cls-1"><path class="cls-2" d="M21,80.57a2.57,2.57,0,0,1-1.24-1,2.65,2.65,0,0,1-.38-1.38,2.77,2.77,0,0,1,.89-2.11,3.59,3.59,0,0,1,2.54-.84,3.59,3.59,0,0,1,2.54.84,2.74,2.74,0,0,1,.9,2.11,2.54,2.54,0,0,1-.41,1.42,2.63,2.63,0,0,1-1.17.95,3.08,3.08,0,0,1,1.45,1.12,3,3,0,0,1,.5,1.69,3.47,3.47,0,0,1-1,2.58,3.69,3.69,0,0,1-2.69,1,4.07,4.07,0,0,1-2.61-.82,3.2,3.2,0,0,1-1.22-2.65,3.27,3.27,0,0,1,.46-1.71A3,3,0,0,1,21,80.57Zm.25,2.7a2,2,0,0,0,.47,1.41,1.5,1.5,0,0,0,1.16.51A1.46,1.46,0,0,0,24,84.7a2,2,0,0,0,.45-1.41A1.77,1.77,0,0,0,24,82a1.47,1.47,0,0,0-1.14-.49,1.36,1.36,0,0,0-1.2.55A2,2,0,0,0,21.21,83.27Zm.21-4.91a1.35,1.35,0,0,0,.37,1,1.3,1.3,0,0,0,1,.37,1.34,1.34,0,0,0,1-.37,1.39,1.39,0,0,0,.38-1,1.34,1.34,0,0,0-.37-1,1.51,1.51,0,0,0-2,0A1.34,1.34,0,0,0,21.42,78.36Z" transform="translate(0.25 0.18)"/></g><g class="cls-1"><path class="cls-4" d="M34.81,92.4V90.62h6.57V92a10.3,10.3,0,0,0-1.65,2.3,13.16,13.16,0,0,0-1.28,3.18,11.76,11.76,0,0,0-.44,3H36.16A12.82,12.82,0,0,1,37,96.26a14.09,14.09,0,0,1,2.16-3.86Z" transform="translate(0.25 0.18)"/></g><g class="cls-1"><path class="cls-4" d="M20,42.05H18V34.81a6.65,6.65,0,0,1-2.48,1.46V34.52a5.43,5.43,0,0,0,1.63-.93A3.55,3.55,0,0,0,18.39,32H20Z" transform="translate(0.25 0.18)"/><path class="cls-4" d="M24.53,32a2.7,2.7,0,0,1,2.27,1,6.57,6.57,0,0,1,1,4.08,6.72,6.72,0,0,1-1,4.09,2.75,2.75,0,0,1-2.27,1,2.86,2.86,0,0,1-2.36-1.12,6.63,6.63,0,0,1-.9-4,6.61,6.61,0,0,1,1-4.08A2.74,2.74,0,0,1,24.53,32Zm0,1.59a.94.94,0,0,0-.62.22,1.47,1.47,0,0,0-.43.8,11.09,11.09,0,0,0-.2,2.51,10.77,10.77,0,0,0,.18,2.42,1.74,1.74,0,0,0,.45.88,1,1,0,0,0,1.24,0,1.54,1.54,0,0,0,.42-.8,10.43,10.43,0,0,0,.2-2.5,10.82,10.82,0,0,0-.18-2.43,1.67,1.67,0,0,0-.44-.88A.94.94,0,0,0,24.53,33.58Z" transform="translate(0.25 0.18)"/></g><g class="cls-1"><path class="cls-4" d="M36.48,25.42H34.56V18.18a6.65,6.65,0,0,1-2.48,1.46V17.89A5.43,5.43,0,0,0,33.71,17a3.55,3.55,0,0,0,1.21-1.6h1.56Z" transform="translate(0.25 0.18)"/><path class="cls-4" d="M42,25.42H40V18.18a6.65,6.65,0,0,1-2.48,1.46V17.89A5.47,5.47,0,0,0,39.19,17a3.62,3.62,0,0,0,1.21-1.6H42Z" transform="translate(0.25 0.18)"/></g><g class="cls-1"><path class="cls-4" d="M99.51,61.25l1.86-.22a1.69,1.69,0,0,0,.47,1.08,1.33,1.33,0,0,0,1,.38,1.3,1.3,0,0,0,1-.45,1.76,1.76,0,0,0,.41-1.22,1.64,1.64,0,0,0-.39-1.15,1.25,1.25,0,0,0-1-.42,3.67,3.67,0,0,0-.89.14l.22-1.56a1.71,1.71,0,0,0,1.19-.34,1.22,1.22,0,0,0,.41-1,1.09,1.09,0,0,0-.3-.8,1.1,1.1,0,0,0-.8-.3,1.18,1.18,0,0,0-.85.34,1.62,1.62,0,0,0-.42,1l-1.77-.3a3.94,3.94,0,0,1,.56-1.46,2.52,2.52,0,0,1,1-.85,3.43,3.43,0,0,1,1.49-.31,3,3,0,0,1,2.27.9,2.29,2.29,0,0,1-.74,3.77,2.37,2.37,0,0,1,1.38.83,2.44,2.44,0,0,1,.52,1.55,3,3,0,0,1-1,2.25,3.31,3.31,0,0,1-2.4.93,3.28,3.28,0,0,1-2.25-.78A3,3,0,0,1,99.51,61.25Z" transform="translate(0.25 0.18)"/></g><g class="cls-1"><path class="cls-4" d="M100.31,38.77v1.78H93.58a4.59,4.59,0,0,1,.66-1.92,12.62,12.62,0,0,1,2.16-2.4A14.41,14.41,0,0,0,98,34.59a2.15,2.15,0,0,0,.39-1.18,1.35,1.35,0,0,0-.34-1,1.33,1.33,0,0,0-1-.34,1.28,1.28,0,0,0-1,.36,1.81,1.81,0,0,0-.41,1.21l-1.92-.2a3.17,3.17,0,0,1,1.08-2.27,3.59,3.59,0,0,1,2.25-.69,3.22,3.22,0,0,1,2.33.8,2.59,2.59,0,0,1,.85,2,3.52,3.52,0,0,1-.24,1.29,5.43,5.43,0,0,1-.77,1.28A12.74,12.74,0,0,1,98,37.13c-.6.55-1,.92-1.15,1.1a3.46,3.46,0,0,0-.39.54Z" transform="translate(0.25 0.18)"/></g><g class="cls-1"><path class="cls-4" d="M62.83,99.32,61,99.53a1.31,1.31,0,0,0-.35-.85,1,1,0,0,0-.75-.27,1.27,1.27,0,0,0-1,.54,4.74,4.74,0,0,0-.53,2.28,2.25,2.25,0,0,1,1.79-.85,2.73,2.73,0,0,1,2.06.92,3.33,3.33,0,0,1,.86,2.36,3.4,3.4,0,0,1-.9,2.47,3.29,3.29,0,0,1-4.82-.25,6.07,6.07,0,0,1-1-3.86,6.21,6.21,0,0,1,1-4A3.29,3.29,0,0,1,60,96.83a2.79,2.79,0,0,1,1.89.64A2.93,2.93,0,0,1,62.83,99.32Zm-4.35,4.19a2.16,2.16,0,0,0,.43,1.45,1.26,1.26,0,0,0,1,.51,1.12,1.12,0,0,0,.89-.42,2.08,2.08,0,0,0,.36-1.37,2.16,2.16,0,0,0-.39-1.43,1.19,1.19,0,0,0-1-.45,1.21,1.21,0,0,0-.94.43A1.92,1.92,0,0,0,58.48,103.51Z" transform="translate(0.25 0.18)"/></g><g class="cls-1"><path class="cls-4" d="M78.44,97.92l1.92-.2a1.59,1.59,0,0,0,.48,1,1.32,1.32,0,0,0,2-.11,2.19,2.19,0,0,0,.42-1.47,2,2,0,0,0-.42-1.38,1.35,1.35,0,0,0-1.07-.46,2,2,0,0,0-1.49.73l-1.56-.23,1-5.21h5.08v1.79H81.12l-.31,1.71a2.91,2.91,0,0,1,3.48.6,3.33,3.33,0,0,1,.89,2.42,3.58,3.58,0,0,1-.72,2.2,3.16,3.16,0,0,1-2.71,1.33,3.4,3.4,0,0,1-2.26-.74A3.09,3.09,0,0,1,78.44,97.92Z" transform="translate(0.25 0.18)"/></g><g class="cls-1"><path class="cls-4" d="M97.59,85.63v-2h-4.1V81.93l4.35-6.36h1.61v6.35h1.25v1.69H99.45v2Zm0-3.71V78.5l-2.3,3.42Z" transform="translate(0.25 0.18)"/></g><circle class="cls-5" cx="59.23" cy="3.43" r="3.25"/><circle class="cls-5" cx="87.06" cy="10.96" r="3.25"/><circle class="cls-5" cx="107.5" cy="31.52" r="3.25"/><circle class="cls-5" cx="114.96" cy="59.23" r="3.25"/><circle class="cls-5" cx="107.5" cy="86.93" r="3.25"/><circle class="cls-5" cx="87.06" cy="107.07" r="3.25"/><circle class="cls-5" cx="60.31" cy="115.03" r="3.25"/><circle class="cls-5" cx="31.56" cy="107.43" r="3.25"/><circle class="cls-5" cx="11.44" cy="87.81" r="3.25"/><circle class="cls-5" cx="3.5" cy="59.23" r="3.25"/><circle class="cls-5" cx="10.74" cy="31.24" r="3.25"/><circle class="cls-5" cx="31.22" cy="10.96" r="3.25"/></g></svg>