<svg id="Layer_1" data-name="Layer 1" xmlns="http://www.w3.org/2000/svg" viewBox="0 0 118.46 173.33"><defs><style>.cls-1{fill:none;stroke:#d9d9d9;stroke-miterlimit:10;stroke-width:7px;}.cls-2{isolation:isolate;}.cls-3{fill:#e0a180;}.cls-4{fill:#9c9b9b;}.cls-5{fill:#b1b1b0;}</style></defs><g id="Слой_2" data-name="Слой 2"><circle class="cls-1" cx="59.23" cy="79.7" r="55.73"/><g class="cls-2"><path class="cls-3" d="M54.79,41.73h-2.2V33.46a7.59,7.59,0,0,1-2.83,1.66v-2a6.26,6.26,0,0,0,1.86-1.07A4,4,0,0,0,53,30.23h1.78Z" transform="translate(0.25 0.67)"/><path class="cls-3" d="M63.72,39.69v2H56a5.2,5.2,0,0,1,.75-2.19,14.31,14.31,0,0,1,2.47-2.75,15.8,15.8,0,0,0,1.82-1.87,2.44,2.44,0,0,0,.45-1.35,1.55,1.55,0,0,0-.39-1.13,1.7,1.7,0,0,0-2.19,0,2.15,2.15,0,0,0-.47,1.38l-2.18-.22A3.57,3.57,0,0,1,57.51,31a4.11,4.11,0,0,1,2.58-.79,3.7,3.7,0,0,1,2.66.91,3,3,0,0,1,1,2.28,4.08,4.08,0,0,1-.27,1.47,6.09,6.09,0,0,1-.88,1.46,15.15,15.15,0,0,1-1.44,1.47q-1,.95-1.32,1.26a4.52,4.52,0,0,0-.45.61Z" transform="translate(0.25 0.67)"/></g><g class="cls-2"><path class="cls-3" d="M43.37,163.78V145.1h7.94a13.46,13.46,0,0,1,4.35.51,4.25,4.25,0,0,1,2.17,1.79,5.42,5.42,0,0,1,.82,2.94,5,5,0,0,1-1.24,3.47,6,6,0,0,1-3.69,1.73,8.91,8.91,0,0,1,2,1.56,20.31,20.31,0,0,1,2.15,3l2.28,3.64H55.65l-2.72-4.06a27.18,27.18,0,0,0-2-2.75,2.91,2.91,0,0,0-1.14-.78,6.19,6.19,0,0,0-1.89-.21h-.77v7.8ZM47.14,153h2.79a14,14,0,0,0,3.39-.23,2,2,0,0,0,1.06-.79,2.46,2.46,0,0,0,.38-1.4,2.26,2.26,0,0,0-.5-1.52,2.29,2.29,0,0,0-1.42-.73c-.31,0-1.23-.07-2.76-.07H47.14Z" transform="translate(0.25 0.67)"/></g><g class="cls-2"><path class="cls-3" d="M67.25,164.29l-2,.22a1.43,1.43,0,0,0-.39-.91,1.09,1.09,0,0,0-.8-.3,1.36,1.36,0,0,0-1.11.59,4.93,4.93,0,0,0-.58,2.46,2.43,2.43,0,0,1,1.93-.91,3,3,0,0,1,2.23,1,3.57,3.57,0,0,1,.93,2.55,3.67,3.67,0,0,1-1,2.67,3.56,3.56,0,0,1-5.2-.27,6.58,6.58,0,0,1-1.06-4.18,6.71,6.71,0,0,1,1.1-4.29,3.56,3.56,0,0,1,2.86-1.32,3,3,0,0,1,2,.7A3.22,3.22,0,0,1,67.25,164.29Zm-4.71,4.53a2.33,2.33,0,0,0,.47,1.56,1.35,1.35,0,0,0,1.06.55,1.22,1.22,0,0,0,1-.45,2.24,2.24,0,0,0,.39-1.48,2.34,2.34,0,0,0-.42-1.54,1.33,1.33,0,0,0-2,0A2,2,0,0,0,62.54,168.82Z" transform="translate(0.25 0.67)"/><path class="cls-3" d="M72.14,161.59a3,3,0,0,1,2.46,1.13,9.68,9.68,0,0,1,0,8.83,2.93,2.93,0,0,1-2.45,1.1,3.08,3.08,0,0,1-2.55-1.21c-.65-.81-1-2.26-1-4.33a7.17,7.17,0,0,1,1.07-4.41A2.94,2.94,0,0,1,72.14,161.59Zm0,1.73a1,1,0,0,0-.67.24,1.58,1.58,0,0,0-.46.86,11.9,11.9,0,0,0-.22,2.71,11.57,11.57,0,0,0,.2,2.62,1.85,1.85,0,0,0,.48.95,1.07,1.07,0,0,0,.67.23,1,1,0,0,0,.67-.24,1.58,1.58,0,0,0,.46-.86,12,12,0,0,0,.21-2.7,11.68,11.68,0,0,0-.19-2.62,1.88,1.88,0,0,0-.48-.95A1,1,0,0,0,72.14,163.32Z" transform="translate(0.25 0.67)"/><path class="cls-3" d="M77,163.81a2.36,2.36,0,1,1,.69,1.67A2.28,2.28,0,0,1,77,163.81Zm1.22,0a1.1,1.1,0,0,0,.34.8,1.12,1.12,0,0,0,1.59,0,1.11,1.11,0,0,0,0-1.6,1.12,1.12,0,0,0-1.59,0A1.1,1.1,0,0,0,78.26,163.81Z" transform="translate(0.25 0.67)"/></g><g class="cls-2"><path class="cls-4" d="M81.08,45.4H79.16V38.16a6.65,6.65,0,0,1-2.48,1.46V37.87a5.43,5.43,0,0,0,1.63-.93,3.55,3.55,0,0,0,1.21-1.6h1.56Z" transform="translate(0.25 0.67)"/></g><g class="cls-2"><path class="cls-4" d="M11.82,81.57l1.86-.2a1.31,1.31,0,0,0,.35.84,1.07,1.07,0,0,0,.76.27,1.24,1.24,0,0,0,1-.54,4.61,4.61,0,0,0,.53-2.27,2.28,2.28,0,0,1-1.81.84,2.7,2.7,0,0,1-2-.92,3.32,3.32,0,0,1-.86-2.37,3.39,3.39,0,0,1,.91-2.46,3.07,3.07,0,0,1,2.31-.93A3.1,3.1,0,0,1,17.34,75a6.09,6.09,0,0,1,1,3.88,6.15,6.15,0,0,1-1,4,3.3,3.3,0,0,1-2.65,1.22,2.78,2.78,0,0,1-1.9-.63A3,3,0,0,1,11.82,81.57Zm4.34-4.19a2.24,2.24,0,0,0-.42-1.45,1.28,1.28,0,0,0-1-.51,1.12,1.12,0,0,0-.89.42,2.87,2.87,0,0,0,0,2.8,1.2,1.2,0,0,0,1,.46,1.18,1.18,0,0,0,.93-.44A1.87,1.87,0,0,0,16.16,77.38Z" transform="translate(0.25 0.67)"/></g><g class="cls-2"><path class="cls-4" d="M20.64,101.32a2.27,2.27,0,0,1-1.08-.86,2.24,2.24,0,0,1-.34-1.21A2.42,2.42,0,0,1,20,97.4a3.14,3.14,0,0,1,2.23-.73,3.15,3.15,0,0,1,2.22.73,2.43,2.43,0,0,1,.79,1.85,2.11,2.11,0,0,1-.37,1.24,2.22,2.22,0,0,1-1,.83,2.71,2.71,0,0,1,1.27,1,2.58,2.58,0,0,1,.44,1.48,3,3,0,0,1-.89,2.26,3.2,3.2,0,0,1-2.35.87,3.57,3.57,0,0,1-2.28-.72A2.8,2.8,0,0,1,19,103.87a2.88,2.88,0,0,1,.4-1.5A2.63,2.63,0,0,1,20.64,101.32Zm.22,2.36a1.78,1.78,0,0,0,.41,1.24,1.33,1.33,0,0,0,1,.44,1.29,1.29,0,0,0,1-.42,1.79,1.79,0,0,0,.39-1.24,1.62,1.62,0,0,0-.4-1.13,1.32,1.32,0,0,0-1-.43,1.19,1.19,0,0,0-1.05.49A1.77,1.77,0,0,0,20.86,103.68ZM21,99.39a1.21,1.21,0,0,0,.32.89,1.31,1.31,0,0,0,1.74,0,1.22,1.22,0,0,0,.33-.9,1.12,1.12,0,0,0-1.18-1.19A1.13,1.13,0,0,0,21,99.39Z" transform="translate(0.25 0.67)"/></g><g class="cls-2"><path class="cls-4" d="M34.81,112.38V110.6h6.57V112a10.3,10.3,0,0,0-1.65,2.3,13.32,13.32,0,0,0-1.28,3.18,11.76,11.76,0,0,0-.44,3H36.16a12.82,12.82,0,0,1,.86-4.24,14.09,14.09,0,0,1,2.16-3.86Z" transform="translate(0.25 0.67)"/></g><g class="cls-2"><path class="cls-4" d="M20,62H18V54.79a6.65,6.65,0,0,1-2.48,1.46V54.5a5.43,5.43,0,0,0,1.63-.93A3.55,3.55,0,0,0,18.39,52H20Z" transform="translate(0.25 0.67)"/><path class="cls-4" d="M24.53,52a2.7,2.7,0,0,1,2.27,1,6.57,6.57,0,0,1,1,4.08,6.72,6.72,0,0,1-1,4.09,2.75,2.75,0,0,1-2.27,1,2.86,2.86,0,0,1-2.36-1.12,6.63,6.63,0,0,1-.9-4,6.61,6.61,0,0,1,1-4.08A2.74,2.74,0,0,1,24.53,52Zm0,1.59a.94.94,0,0,0-.62.22,1.47,1.47,0,0,0-.43.8,11.09,11.09,0,0,0-.2,2.51,10.77,10.77,0,0,0,.18,2.42,1.74,1.74,0,0,0,.45.88.94.94,0,0,0,.62.22,1,1,0,0,0,.62-.22,1.54,1.54,0,0,0,.42-.8,10.43,10.43,0,0,0,.2-2.5,10.65,10.65,0,0,0-.18-2.42,1.66,1.66,0,0,0-.44-.89A.94.94,0,0,0,24.53,53.56Z" transform="translate(0.25 0.67)"/></g><g class="cls-2"><path class="cls-4" d="M36.48,45.4H34.56V38.16a6.65,6.65,0,0,1-2.48,1.46V37.87a5.43,5.43,0,0,0,1.63-.93,3.55,3.55,0,0,0,1.21-1.6h1.56Z" transform="translate(0.25 0.67)"/><path class="cls-4" d="M42,45.4H40V38.16a6.65,6.65,0,0,1-2.48,1.46V37.87a5.47,5.47,0,0,0,1.64-.93,3.62,3.62,0,0,0,1.21-1.6H42Z" transform="translate(0.25 0.67)"/></g><g class="cls-2"><path class="cls-4" d="M99.51,81.23l1.86-.22a1.69,1.69,0,0,0,.47,1.08,1.33,1.33,0,0,0,1,.38,1.3,1.3,0,0,0,1-.45,1.76,1.76,0,0,0,.41-1.22,1.64,1.64,0,0,0-.39-1.15,1.25,1.25,0,0,0-1-.42,3.67,3.67,0,0,0-.89.14l.22-1.56a1.71,1.71,0,0,0,1.19-.34,1.22,1.22,0,0,0,.41-1,1.09,1.09,0,0,0-.3-.8,1.1,1.1,0,0,0-.8-.3,1.18,1.18,0,0,0-.85.34,1.62,1.62,0,0,0-.42,1l-1.77-.3a3.87,3.87,0,0,1,.56-1.46,2.52,2.52,0,0,1,1-.85,3.43,3.43,0,0,1,1.49-.31,3,3,0,0,1,2.27.9,2.29,2.29,0,0,1-.74,3.77,2.37,2.37,0,0,1,1.38.83,2.44,2.44,0,0,1,.52,1.55,3,3,0,0,1-1,2.25,3.31,3.31,0,0,1-2.4.93,3.28,3.28,0,0,1-2.25-.78A3,3,0,0,1,99.51,81.23Z" transform="translate(0.25 0.67)"/></g><g class="cls-2"><path class="cls-4" d="M100.31,58.75v1.78H93.58a4.59,4.59,0,0,1,.66-1.92,12.62,12.62,0,0,1,2.16-2.4A14.41,14.41,0,0,0,98,54.57a2.15,2.15,0,0,0,.39-1.18,1.31,1.31,0,0,0-.34-1,1.46,1.46,0,0,0-1.91,0,1.83,1.83,0,0,0-.41,1.21l-1.92-.2a3.17,3.17,0,0,1,1.08-2.27,3.59,3.59,0,0,1,2.25-.69,3.22,3.22,0,0,1,2.33.8,2.59,2.59,0,0,1,.85,2,3.52,3.52,0,0,1-.24,1.29,5.43,5.43,0,0,1-.77,1.28A12.74,12.74,0,0,1,98,57.11c-.6.55-1,.92-1.15,1.1a3.46,3.46,0,0,0-.39.54Z" transform="translate(0.25 0.67)"/></g><g class="cls-2"><path class="cls-4" d="M62.83,119.3l-1.86.21a1.34,1.34,0,0,0-.35-.85,1,1,0,0,0-.75-.27,1.27,1.27,0,0,0-1,.54,4.74,4.74,0,0,0-.53,2.28,2.25,2.25,0,0,1,1.79-.85,2.73,2.73,0,0,1,2.06.92,3.33,3.33,0,0,1,.86,2.36,3.4,3.4,0,0,1-.9,2.47,3.29,3.29,0,0,1-4.82-.25,6,6,0,0,1-1-3.86,6.21,6.21,0,0,1,1-4A3.29,3.29,0,0,1,60,116.81a2.79,2.79,0,0,1,1.89.64A2.93,2.93,0,0,1,62.83,119.3Zm-4.35,4.19a2.16,2.16,0,0,0,.43,1.45,1.26,1.26,0,0,0,1,.51,1.12,1.12,0,0,0,.89-.42,2.08,2.08,0,0,0,.36-1.37,2.18,2.18,0,0,0-.39-1.43,1.19,1.19,0,0,0-1-.45,1.21,1.21,0,0,0-.94.43A1.92,1.92,0,0,0,58.48,123.49Z" transform="translate(0.25 0.67)"/></g><g class="cls-2"><path class="cls-4" d="M78.44,117.9l1.92-.19a1.59,1.59,0,0,0,.48,1,1.29,1.29,0,0,0,.93.38,1.31,1.31,0,0,0,1-.48,2.23,2.23,0,0,0,.42-1.48,2,2,0,0,0-.42-1.38,1.36,1.36,0,0,0-1.07-.47,2,2,0,0,0-1.49.74l-1.56-.23,1-5.21h5.08v1.79H81.12l-.31,1.71a2.91,2.91,0,0,1,3.48.6,3.33,3.33,0,0,1,.89,2.42,3.58,3.58,0,0,1-.72,2.2,3.16,3.16,0,0,1-2.71,1.33,3.4,3.4,0,0,1-2.26-.74A3.09,3.09,0,0,1,78.44,117.9Z" transform="translate(0.25 0.67)"/></g><g class="cls-2"><path class="cls-4" d="M97.59,105.61v-2h-4.1v-1.68l4.35-6.36h1.61v6.36h1.25v1.68H99.45v2Zm0-3.7V98.48l-2.3,3.43Z" transform="translate(0.25 0.67)"/></g><circle class="cls-5" cx="59.23" cy="23.9" r="3.25"/><circle class="cls-5" cx="87.06" cy="31.43" r="3.25"/><circle class="cls-5" cx="107.5" cy="52" r="3.25"/><circle class="cls-5" cx="114.96" cy="79.7" r="3.25"/><circle class="cls-5" cx="107.5" cy="107.4" r="3.25"/><circle class="cls-5" cx="87.06" cy="127.54" r="3.25"/><circle class="cls-5" cx="60.31" cy="135.5" r="3.25"/><circle class="cls-5" cx="31.56" cy="127.91" r="3.25"/><circle class="cls-5" cx="11.44" cy="108.28" r="3.25"/><circle class="cls-5" cx="3.5" cy="79.7" r="3.25"/><circle class="cls-5" cx="10.74" cy="51.71" r="3.25"/><circle class="cls-5" cx="31.22" cy="31.43" r="3.25"/><g class="cls-2"><g class="cls-2"><path class="cls-3" d="M40.7,7.85l2.57.81a5.77,5.77,0,0,1-2,3.19,5.54,5.54,0,0,1-3.48,1,5.64,5.64,0,0,1-4.3-1.78,6.84,6.84,0,0,1-1.68-4.88,7.16,7.16,0,0,1,1.69-5.09A5.8,5.8,0,0,1,38-.67,5.45,5.45,0,0,1,41.89.75a5.12,5.12,0,0,1,1.34,2.42l-2.62.62a2.8,2.8,0,0,0-1-1.61,2.8,2.8,0,0,0-1.8-.59,3,3,0,0,0-2.36,1.05A5.09,5.09,0,0,0,34.57,6a5.52,5.52,0,0,0,.89,3.54,2.91,2.91,0,0,0,2.33,1.06A2.66,2.66,0,0,0,39.61,10,4,4,0,0,0,40.7,7.85Z" transform="translate(0.25 0.67)"/></g><g class="cls-2"><path class="cls-3" d="M48.09,12.67V1.77h-3.9V-.45H54.62V1.77H50.74v10.9Z" transform="translate(0.25 0.67)"/></g><g class="cls-2"><path class="cls-3" d="M67.31,12.67H64.42l-1.14-3H58l-1.08,3H54.14L59.25-.45h2.8ZM62.43,7.48,60.62,2.61,58.85,7.48Z" transform="translate(0.25 0.67)"/><path class="cls-3" d="M68.71,12.67V-.45H73a14.71,14.71,0,0,1,3.15.2A3.41,3.41,0,0,1,78,1a4.06,4.06,0,0,1,.76,2.56,4.2,4.2,0,0,1-.44,2,3.52,3.52,0,0,1-1.11,1.29,3.85,3.85,0,0,1-1.38.62,14.55,14.55,0,0,1-2.74.19H71.36v5Zm2.65-10.9V5.49h1.45a7.13,7.13,0,0,0,2.09-.2A1.73,1.73,0,0,0,76,3.62a1.69,1.69,0,0,0-.42-1.18,1.83,1.83,0,0,0-1.06-.58,12.8,12.8,0,0,0-1.91-.09Z" transform="translate(0.25 0.67)"/><path class="cls-3" d="M83.65,12.67V1.77H79.76V-.45H90.18V1.77H86.3v10.9Z" transform="translate(0.25 0.67)"/></g></g></g></svg>