<svg xmlns="http://www.w3.org/2000/svg" viewBox="0 0 529.75 341.2"><defs><style>.cls-1,.cls-3{fill:none;}.cls-1{stroke:#e0a180;stroke-miterlimit:10;stroke-width:10px;}.cls-2,.cls-5,.cls-6{fill:#fff;}.cls-3,.cls-4,.cls-5{stroke:#52adca;stroke-linejoin:round;}.cls-4{fill:#52adca;}.cls-6{font-size:16.05px;font-family:ConquerorSansExtraBold, Conqueror Sans;font-weight:700;}.cls-7{fill:#e0a180;}.cls-8{fill:#d1eced;}.cls-9{letter-spacing:-0.09em;}.cls-10{letter-spacing:0em;}</style></defs><title>svg21</title><g id="Слой_2" data-name="Слой 2"><path class="cls-1" d="M104.76,173.9c9.44,10.55,16.53,15.46,54.47,15.46,33.16,0,50.09,5,62.23,17.52s26.33,30.8,46.36,32.09S309.4,245.1,330.54,264s8.33,37.24-37.05,36.62-52.34-16.5-64.86-24.26c-10.25-6.36-93-11.77-55,24.14,33.59,31.77,82.84,35.11,101.67,34.67,18.66-.44,95.7,0,136.67,0,31,0,36.89-6.16,37-17.67.19-19.48-39.23-36.63-31.71-51s24.59-21.21,67.15-20.14,44.18-18.79,35.41-28.54-43.68-42-54.24-47.13S438.48,164,412.3,164c-30,0-50.27-31.53-56.84-38.52s-38.62-6.54-61.16-6.62-50.7,3.19-62.86-9.33-32.61-34.47-39.05-35.48c-63.09-9.86-76,13.47-76,23.55"/><polygon class="cls-2" points="108.44 169.45 108.44 177.2 99.21 177.2 108.44 169.45"/><polygon class="cls-2" points="112.3 90.04 116.71 97.61 123.96 91.12 123.21 98.62 110.3 98.12 112.3 90.04"/><polygon class="cls-2" points="145.96 183.2 150.8 189.26 145.38 195.95 154.13 196.7 159.21 189.95 154.8 183.2 145.96 183.2"/><polygon class="cls-2" points="238.51 216.52 237.88 223.78 228.26 224.79 234.88 230.91 244.48 229.35 245.26 221.41 238.51 216.52"/><polygon class="cls-2" points="289.38 235.7 292.98 243.03 287.21 247.95 280.3 247.29 285.13 241.86 282.13 234.62 289.38 235.7"/><polygon class="cls-2" points="329.73 288.16 328.92 295.25 335.96 298.54 329.51 301.91 322.76 298.54 323.88 290.29 329.73 288.16"/><polygon class="cls-2" points="275.51 292.66 268.1 298.16 270.26 305.66 263.13 303.91 261.41 296.48 268.46 291.04 275.51 292.66"/><polygon class="cls-2" points="235.26 273.04 226.75 275.51 226.75 282.79 221.38 280.54 220.76 273.04 229.63 269.04 235.26 273.04"/><polygon class="cls-2" points="208.96 315.2 208.96 323.02 202.32 326.54 210.93 330.2 217.33 326.19 217.33 319.41 208.96 315.2"/><polygon class="cls-2" points="292.98 328.54 298.3 335.02 291.8 341.2 302.63 341.2 308.26 335.01 302.46 328.54 292.98 328.54"/><polygon class="cls-2" points="315.71 328.54 321.03 335.02 314.52 341.2 325.36 341.2 330.99 335.01 325.19 328.54 315.71 328.54"/><polygon class="cls-2" points="339.44 328.54 344.75 335.02 338.25 341.2 349.08 341.2 354.71 335.01 348.92 328.54 339.44 328.54"/><polygon class="cls-2" points="418.44 328.54 423.75 335.02 417.25 341.2 428.08 341.2 433.71 335.01 427.92 328.54 418.44 328.54"/><polygon class="cls-2" points="480.49 240.04 485.8 246.52 479.3 252.71 490.13 252.71 495.76 246.51 489.97 240.04 480.49 240.04"/><polygon class="cls-2" points="432.52 170.34 427.21 163.86 433.71 157.67 422.88 157.67 417.25 163.87 423.04 170.34 432.52 170.34"/><polygon class="cls-2" points="295.49 125.36 290.17 118.87 296.67 112.69 285.84 112.69 280.21 118.89 286 125.36 295.49 125.36"/><polygon class="cls-2" points="166.26 78.44 160.94 71.95 167.44 65.77 156.61 65.77 150.98 71.97 156.78 78.44 166.26 78.44"/><polygon class="cls-3" points="353.83 102.46 399.43 102.46 383.48 87.77 337.88 87.77 353.83 102.46"/><polygon class="cls-4" points="337.88 133.37 353.83 148.06 353.83 102.46 337.88 87.77 337.88 133.37"/><polygon class="cls-4" points="374.34 133.37 390.29 148.06 390.29 111.23 374.34 111.23 374.34 133.37"/><path class="cls-4" d="M359.84,92.57v3.26c0,1.41,3.76,2.54,8.4,2.54s8.4-1.14,8.4-2.54V92.57Z"/><ellipse class="cls-5" cx="368.23" cy="92.57" rx="8.4" ry="2.54"/><rect class="cls-5" x="367.29" y="48.55" width="1.62" height="44.01" rx="0.74" ry="0.74"/><polygon class="cls-4" points="313.67 74.06 368.92 74.06 368.92 48.55 313.67 48.55 322.44 61.31 313.67 74.06"/><text class="cls-6" transform="translate(326.82 66.93)">КП<tspan class="cls-7" x="26.5" y="0">5</tspan></text><polygon class="cls-3" points="481.52 157.38 527.12 157.38 511.18 142.7 465.57 142.7 481.52 157.38"/><polygon class="cls-4" points="465.57 188.3 481.52 202.99 481.52 157.38 465.57 142.7 465.57 188.3"/><polygon class="cls-4" points="502.04 188.3 517.98 202.99 517.98 166.15 502.04 166.15 502.04 188.3"/><path class="cls-4" d="M487.53,147.49v3.26c0,1.41,3.76,2.54,8.4,2.54s8.4-1.14,8.4-2.54v-3.26Z"/><ellipse class="cls-5" cx="495.93" cy="147.49" rx="8.4" ry="2.54"/><rect class="cls-5" x="494.99" y="103.48" width="1.62" height="44.01" rx="0.74" ry="0.74"/><polygon class="cls-4" points="441.37 128.99 496.61 128.99 496.61 103.48 441.37 103.48 450.13 116.23 441.37 128.99"/><text class="cls-6" transform="translate(454.51 121.86)">КП<tspan class="cls-7" x="26.5" y="0">2</tspan></text><polygon class="cls-5" points="417.25 253.36 462.85 253.36 446.9 238.67 401.3 238.67 417.25 253.36"/><polygon class="cls-4" points="401.3 284.27 417.25 298.96 417.25 253.36 401.3 238.67 401.3 284.27"/><polygon class="cls-4" points="437.76 284.27 453.71 298.96 453.71 262.13 437.76 262.13 437.76 284.27"/><path class="cls-4" d="M423.26,243.47v3.26c0,1.41,3.76,2.54,8.4,2.54s8.4-1.14,8.4-2.54v-3.26Z"/><ellipse class="cls-5" cx="431.65" cy="243.47" rx="8.4" ry="2.54"/><rect class="cls-5" x="430.72" y="199.45" width="1.62" height="44.01" rx="0.74" ry="0.74"/><polygon class="cls-4" points="377.1 224.96 432.34 224.96 432.34 199.45 377.1 199.45 385.86 212.21 377.1 224.96"/><text class="cls-6" transform="translate(390.24 217.83)">КП<tspan class="cls-7" x="26.5" y="0">4</tspan></text><polygon class="cls-3" points="315.45 226.41 361.05 226.41 345.1 211.72 299.5 211.72 315.45 226.41"/><polygon class="cls-4" points="299.5 257.32 315.45 272.01 315.45 226.41 299.5 211.72 299.5 257.32"/><polygon class="cls-4" points="335.96 257.32 351.91 272.01 351.91 235.18 335.96 235.18 335.96 257.32"/><path class="cls-4" d="M321.46,216.52v3.26c0,1.41,3.76,2.54,8.4,2.54s8.4-1.14,8.4-2.54v-3.26Z"/><ellipse class="cls-5" cx="329.85" cy="216.52" rx="8.4" ry="2.54"/><rect class="cls-5" x="328.92" y="172.5" width="1.62" height="44.01" rx="0.74" ry="0.74"/><polygon class="cls-4" points="275.3 198.01 330.54 198.01 330.54 172.5 275.3 172.5 284.06 185.26 275.3 198.01"/><text class="cls-6" transform="translate(288.44 190.88)">КП<tspan class="cls-7" x="26.5" y="0">7</tspan></text><polygon class="cls-3" points="156.31 257.74 201.91 257.74 185.97 243.05 140.36 243.05 156.31 257.74"/><polygon class="cls-4" points="140.36 288.65 156.31 303.34 156.31 257.74 140.36 243.05 140.36 288.65"/><polygon class="cls-4" points="176.83 288.65 192.77 303.34 192.77 266.51 176.83 266.51 176.83 288.65"/><path class="cls-4" d="M162.32,247.85v3.26c0,1.41,3.76,2.54,8.4,2.54s8.4-1.14,8.4-2.54v-3.26Z"/><ellipse class="cls-5" cx="170.72" cy="247.85" rx="8.4" ry="2.54"/><rect class="cls-5" x="169.78" y="203.84" width="1.62" height="44.01" rx="0.74" ry="0.74"/><polygon class="cls-4" points="116.16 229.35 171.4 229.35 171.4 203.84 116.16 203.84 124.92 216.59 116.16 229.35"/><text class="cls-6" transform="translate(129.3 222.22)">КП<tspan class="cls-7" x="26.5" y="0">6</tspan></text><polygon class="cls-3" points="210.93 173.9 256.53 173.9 240.58 159.21 194.98 159.21 210.93 173.9"/><polygon class="cls-4" points="194.98 204.81 210.93 219.5 210.93 173.9 194.98 159.21 194.98 204.81"/><polygon class="cls-4" points="231.44 204.81 247.39 219.5 247.39 182.66 231.44 182.66 231.44 204.81"/><polygon class="cls-8" points="256.53 173.9 256.53 219.5 247.32 219.5 247.32 182.66 220.15 182.66 220.15 219.5 210.93 219.5 210.93 173.9 256.53 173.9"/><path class="cls-4" d="M216.94,164v3.26c0,1.41,3.76,2.54,8.4,2.54s8.4-1.14,8.4-2.54V164Z"/><ellipse class="cls-5" cx="225.33" cy="164.01" rx="8.4" ry="2.54"/><rect class="cls-5" x="224.39" y="119.99" width="1.62" height="44.01" rx="0.74" ry="0.74"/><polygon class="cls-4" points="170.77 145.5 226.02 145.5 226.02 119.99 170.77 119.99 179.53 132.75 170.77 145.5"/><text class="cls-6" transform="translate(183.92 138.37)">КП<tspan class="cls-7" x="26.5" y="0">3</tspan></text><polygon class="cls-3" points="79.95 126.01 125.55 126.01 109.6 111.32 64 111.32 79.95 126.01"/><polygon class="cls-4" points="64 156.92 79.95 171.61 79.95 126.01 64 111.32 64 156.92"/><polygon class="cls-4" points="100.46 156.92 116.41 171.61 116.41 134.78 100.46 134.78 100.46 156.92"/><path class="cls-4" d="M86,116.12v3.26c0,1.41,3.76,2.54,8.4,2.54s8.4-1.14,8.4-2.54v-3.26Z"/><ellipse class="cls-5" cx="94.35" cy="116.12" rx="8.4" ry="2.54"/><rect class="cls-5" x="93.41" y="2.42" width="1.62" height="113.7" rx="0.74" ry="0.74"/><polygon class="cls-4" points="39.79 97.61 95.04 97.61 95.04 72.11 39.79 72.11 48.56 84.86 39.79 97.61"/><polygon class="cls-7" points="9.78 29.46 95.51 29.46 95.51 3.96 9.78 3.96 18.54 16.71 9.78 29.46"/><polygon class="cls-7" points="1.01 58.26 95.51 58.26 95.51 32.75 1.01 32.75 9.78 45.5 1.01 58.26"/><text class="cls-6" transform="translate(52.94 90.48)">КП<tspan class="cls-7" x="26.5" y="0">1</tspan></text><text class="cls-6" transform="translate(29 22.31)">С<tspan class="cls-9" x="11.24" y="0">Т</tspan><tspan class="cls-10" x="20.29" y="0">АРТ</tspan></text><text class="cls-6" transform="translate(14.91 51.1)">ФИНИШ</text><polygon class="cls-3" points="204.92 58.43 250.52 58.43 234.57 43.74 188.97 43.74 204.92 58.43"/><polygon class="cls-4" points="188.97 89.34 204.92 104.03 204.92 58.43 188.97 43.74 188.97 89.34"/><polygon class="cls-4" points="225.43 89.34 241.38 104.03 241.38 67.2 225.43 67.2 225.43 89.34"/><path class="cls-4" d="M210.93,48.54V51.8c0,1.41,3.76,2.54,8.4,2.54s8.4-1.14,8.4-2.54V48.54Z"/><ellipse class="cls-5" cx="219.32" cy="48.54" rx="8.4" ry="2.54"/><rect class="cls-5" x="218.38" y="4.53" width="1.62" height="44.01" rx="0.74" ry="0.74"/><polygon class="cls-4" points="164.76 30.03 220.01 30.03 220.01 4.53 164.76 4.53 173.53 17.28 164.76 30.03"/><text class="cls-6" transform="translate(177.91 22.9)">КП<tspan class="cls-7" x="26.5" y="0">8</tspan></text><polygon class="cls-3" points="256.53 173.9 256.53 219.5 247.32 219.5 247.32 182.66 220.15 182.66 220.15 219.5 210.93 219.5 210.93 173.9 256.53 173.9"/><polygon class="cls-8" points="202.32 257.74 202.32 303.34 193.12 303.34 193.12 266.51 165.94 266.51 165.94 303.34 156.72 303.34 156.72 257.74 202.32 257.74"/><polygon class="cls-3" points="202.32 257.74 202.32 303.34 193.12 303.34 193.12 266.51 165.94 266.51 165.94 303.34 156.72 303.34 156.72 257.74 202.32 257.74"/><polygon class="cls-8" points="361.05 226.48 361.05 272.08 351.85 272.08 351.85 235.25 324.67 235.25 324.67 272.08 315.45 272.08 315.45 226.48 361.05 226.48"/><polygon class="cls-3" points="361.05 226.48 361.05 272.08 351.85 272.08 351.85 235.25 324.67 235.25 324.67 272.08 315.45 272.08 315.45 226.48 361.05 226.48"/><polygon class="cls-8" points="462.85 253.59 462.85 299.19 453.65 299.19 453.65 262.36 426.47 262.36 426.47 299.19 417.25 299.19 417.25 253.59 462.85 253.59"/><polygon class="cls-3" points="462.85 253.59 462.85 299.19 453.65 299.19 453.65 262.36 426.47 262.36 426.47 299.19 417.25 299.19 417.25 253.59 462.85 253.59"/><polygon class="cls-8" points="527.12 157.38 527.12 202.99 517.92 202.99 517.92 166.15 490.74 166.15 490.74 202.99 481.52 202.99 481.52 157.38 527.12 157.38"/><polygon class="cls-3" points="527.12 157.38 527.12 202.99 517.92 202.99 517.92 166.15 490.74 166.15 490.74 202.99 481.52 202.99 481.52 157.38 527.12 157.38"/><polygon class="cls-8" points="399.9 102.69 399.9 148.29 390.69 148.29 390.69 111.46 363.52 111.46 363.52 148.29 354.3 148.29 354.3 102.69 399.9 102.69"/><polygon class="cls-3" points="399.9 102.69 399.9 148.29 390.69 148.29 390.69 111.46 363.52 111.46 363.52 148.29 354.3 148.29 354.3 102.69 399.9 102.69"/><polygon class="cls-8" points="250.52 58.78 250.52 104.38 241.32 104.38 241.32 67.55 214.14 67.55 214.14 104.38 204.92 104.38 204.92 58.78 250.52 58.78"/><polygon class="cls-3" points="250.52 58.78 250.52 104.38 241.32 104.38 241.32 67.55 214.14 67.55 214.14 104.38 204.92 104.38 204.92 58.78 250.52 58.78"/><polygon class="cls-8" points="125.55 126.01 125.55 171.61 116.34 171.61 116.34 134.78 89.17 134.78 89.17 171.61 79.95 171.61 79.95 126.01 125.55 126.01"/><polygon class="cls-3" points="125.55 126.01 125.55 171.61 116.34 171.61 116.34 134.78 89.17 134.78 89.17 171.61 79.95 171.61 79.95 126.01 125.55 126.01"/></g></svg>