<svg xmlns="http://www.w3.org/2000/svg" viewBox="0 0 529.75 303.83"><defs><style>.cls-1{fill:none;}.cls-1,.cls-2,.cls-3{stroke:#52adca;stroke-linejoin:round;}.cls-2{fill:#52adca;}.cls-3,.cls-4{fill:#fff;}.cls-4{font-size:16.05px;font-family:ConquerorSansExtraBold, Conqueror Sans;font-weight:700;}.cls-5{fill:#e0a180;}.cls-6{fill:#d1eced;}.cls-7{letter-spacing:-0.09em;}.cls-8{letter-spacing:0em;}</style></defs><title>svg21</title><g id="Слой_2" data-name="Слой 2"><polygon class="cls-1" points="354.63 100.99 400.24 100.99 384.29 86.3 338.69 86.3 354.63 100.99"/><polygon class="cls-2" points="338.69 131.9 354.63 146.59 354.63 100.99 338.69 86.3 338.69 131.9"/><polygon class="cls-2" points="375.15 131.9 391.1 146.59 391.1 109.76 375.15 109.76 375.15 131.9"/><path class="cls-2" d="M360.64,91.1v3.26c0,1.41,3.76,2.54,8.4,2.54s8.4-1.14,8.4-2.54V91.1Z"/><ellipse class="cls-3" cx="369.04" cy="91.1" rx="8.4" ry="2.54"/><rect class="cls-3" x="368.1" y="47.09" width="1.62" height="44.01" rx="0.74" ry="0.74"/><polygon class="cls-2" points="314.48 72.59 369.73 72.59 369.73 47.09 314.48 47.09 323.25 59.84 314.48 72.59"/><text class="cls-4" transform="translate(327.63 65.46)">КП<tspan class="cls-5" x="26.5" y="0">5</tspan></text><polygon class="cls-1" points="482.33 155.92 527.93 155.92 511.98 141.23 466.38 141.23 482.33 155.92"/><polygon class="cls-2" points="466.38 186.83 482.33 201.52 482.33 155.92 466.38 141.23 466.38 186.83"/><polygon class="cls-2" points="502.84 186.83 518.79 201.52 518.79 164.69 502.84 164.69 502.84 186.83"/><path class="cls-2" d="M488.34,146v3.26c0,1.41,3.76,2.54,8.4,2.54s8.4-1.14,8.4-2.54V146Z"/><ellipse class="cls-3" cx="496.73" cy="146.03" rx="8.4" ry="2.54"/><rect class="cls-3" x="495.79" y="102.01" width="1.62" height="44.01" rx="0.74" ry="0.74"/><polygon class="cls-2" points="442.17 127.52 497.42 127.52 497.42 102.01 442.17 102.01 450.94 114.77 442.17 127.52"/><text class="cls-4" transform="translate(455.32 120.39)">КП<tspan class="cls-5" x="26.5" y="0">2</tspan></text><polygon class="cls-3" points="418.06 251.89 463.66 251.89 447.71 237.2 402.11 237.2 418.06 251.89"/><polygon class="cls-2" points="402.11 282.8 418.06 297.49 418.06 251.89 402.11 237.2 402.11 282.8"/><polygon class="cls-2" points="438.57 282.8 454.52 297.49 454.52 260.66 438.57 260.66 438.57 282.8"/><path class="cls-2" d="M424.07,242v3.26c0,1.41,3.76,2.54,8.4,2.54s8.4-1.14,8.4-2.54V242Z"/><ellipse class="cls-3" cx="432.46" cy="242" rx="8.4" ry="2.54"/><rect class="cls-3" x="431.52" y="197.99" width="1.62" height="44.01" rx="0.74" ry="0.74"/><polygon class="cls-2" points="377.9 223.5 433.15 223.5 433.15 197.99 377.9 197.99 386.67 210.74 377.9 223.5"/><text class="cls-4" transform="translate(391.05 216.36)">КП<tspan class="cls-5" x="26.5" y="0">4</tspan></text><polygon class="cls-1" points="316.26 224.94 361.86 224.94 345.91 210.25 300.31 210.25 316.26 224.94"/><polygon class="cls-2" points="300.31 255.85 316.26 270.54 316.26 224.94 300.31 210.25 300.31 255.85"/><polygon class="cls-2" points="336.77 255.85 352.72 270.54 352.72 233.71 336.77 233.71 336.77 255.85"/><path class="cls-2" d="M322.27,215v3.26c0,1.41,3.76,2.54,8.4,2.54s8.4-1.14,8.4-2.54V215Z"/><ellipse class="cls-3" cx="330.66" cy="215.05" rx="8.4" ry="2.54"/><rect class="cls-3" x="329.72" y="171.04" width="1.62" height="44.01" rx="0.74" ry="0.74"/><polygon class="cls-2" points="276.1 196.54 331.35 196.54 331.35 171.04 276.1 171.04 284.87 183.79 276.1 196.54"/><text class="cls-4" transform="translate(289.25 189.41)">КП<tspan class="cls-5" x="26.5" y="0">7</tspan></text><polygon class="cls-1" points="157.12 256.27 202.72 256.27 186.77 241.59 141.17 241.59 157.12 256.27"/><polygon class="cls-2" points="141.17 287.19 157.12 301.88 157.12 256.27 141.17 241.59 141.17 287.19"/><polygon class="cls-2" points="177.63 287.19 193.58 301.88 193.58 265.05 177.63 265.05 177.63 287.19"/><path class="cls-2" d="M163.13,246.39v3.26c0,1.41,3.76,2.54,8.4,2.54s8.4-1.14,8.4-2.54v-3.26Z"/><ellipse class="cls-3" cx="171.52" cy="246.39" rx="8.4" ry="2.54"/><rect class="cls-3" x="170.58" y="202.37" width="1.62" height="44.01" rx="0.74" ry="0.74"/><polygon class="cls-2" points="116.97 227.88 172.21 227.88 172.21 202.37 116.97 202.37 125.73 215.13 116.97 227.88"/><text class="cls-4" transform="translate(130.11 220.75)">КП<tspan class="cls-5" x="26.5" y="0">6</tspan></text><polygon class="cls-1" points="211.73 172.43 257.33 172.43 241.39 157.74 195.79 157.74 211.73 172.43"/><polygon class="cls-2" points="195.79 203.34 211.73 218.03 211.73 172.43 195.79 157.74 195.79 203.34"/><polygon class="cls-2" points="232.25 203.34 248.19 218.03 248.19 181.2 232.25 181.2 232.25 203.34"/><polygon class="cls-6" points="257.33 172.43 257.33 218.03 248.13 218.03 248.13 181.2 220.95 181.2 220.95 218.03 211.73 218.03 211.73 172.43 257.33 172.43"/><path class="cls-2" d="M217.74,162.54v3.26c0,1.41,3.76,2.54,8.4,2.54s8.4-1.14,8.4-2.54v-3.26Z"/><ellipse class="cls-3" cx="226.14" cy="162.54" rx="8.4" ry="2.54"/><rect class="cls-3" x="225.2" y="118.53" width="1.62" height="44.01" rx="0.74" ry="0.74"/><polygon class="cls-2" points="171.58 144.03 226.82 144.03 226.82 118.53 171.58 118.53 180.34 131.28 171.58 144.03"/><text class="cls-4" transform="translate(184.72 136.9)">КП<tspan class="cls-5" x="26.5" y="0">3</tspan></text><polygon class="cls-1" points="80.75 124.54 126.36 124.54 110.41 109.85 64.81 109.85 80.75 124.54"/><polygon class="cls-2" points="64.81 155.46 80.75 170.14 80.75 124.54 64.81 109.85 64.81 155.46"/><polygon class="cls-2" points="101.27 155.46 117.22 170.14 117.22 133.31 101.27 133.31 101.27 155.46"/><path class="cls-2" d="M86.76,114.65v3.26c0,1.41,3.76,2.54,8.4,2.54s8.4-1.14,8.4-2.54v-3.26Z"/><ellipse class="cls-3" cx="95.16" cy="114.65" rx="8.4" ry="2.54"/><rect class="cls-3" x="94.22" y="0.96" width="1.62" height="113.7" rx="0.74" ry="0.74"/><polygon class="cls-2" points="40.6 96.15 95.84 96.15 95.84 70.64 40.6 70.64 49.36 83.39 40.6 96.15"/><polygon class="cls-5" points="10.58 28 96.31 28 96.31 2.49 10.58 2.49 19.35 15.24 10.58 28"/><polygon class="cls-5" points="1.82 56.79 96.31 56.79 96.31 31.28 1.82 31.28 10.58 44.03 1.82 56.79"/><text class="cls-4" transform="translate(53.75 89.02)">КП<tspan class="cls-5" x="26.5" y="0">1</tspan></text><text class="cls-4" transform="translate(29.8 20.85)">С<tspan class="cls-7" x="11.24" y="0">Т</tspan><tspan class="cls-8" x="20.29" y="0">АРТ</tspan></text><text class="cls-4" transform="translate(15.72 49.63)">ФИНИШ</text><polygon class="cls-1" points="205.72 56.96 251.33 56.96 235.38 42.27 189.78 42.27 205.72 56.96"/><polygon class="cls-2" points="189.78 87.88 205.72 102.56 205.72 56.96 189.78 42.27 189.78 87.88"/><polygon class="cls-2" points="226.24 87.88 242.19 102.56 242.19 65.73 226.24 65.73 226.24 87.88"/><path class="cls-2" d="M211.73,47.07v3.26c0,1.41,3.76,2.54,8.4,2.54s8.4-1.14,8.4-2.54V47.07Z"/><ellipse class="cls-3" cx="220.13" cy="47.07" rx="8.4" ry="2.54"/><rect class="cls-3" x="219.19" y="3.06" width="1.62" height="44.01" rx="0.74" ry="0.74"/><polygon class="cls-2" points="165.57 28.57 220.81 28.57 220.81 3.06 165.57 3.06 174.34 15.81 165.57 28.57"/><text class="cls-4" transform="translate(178.72 21.44)">КП<tspan class="cls-5" x="26.5" y="0">8</tspan></text><polygon class="cls-1" points="257.33 172.43 257.33 218.03 248.13 218.03 248.13 181.2 220.95 181.2 220.95 218.03 211.73 218.03 211.73 172.43 257.33 172.43"/><polygon class="cls-6" points="203.13 256.27 203.13 301.88 193.92 301.88 193.92 265.05 166.75 265.05 166.75 301.88 157.53 301.88 157.53 256.27 203.13 256.27"/><polygon class="cls-1" points="203.13 256.27 203.13 301.88 193.92 301.88 193.92 265.05 166.75 265.05 166.75 301.88 157.53 301.88 157.53 256.27 203.13 256.27"/><polygon class="cls-6" points="361.86 225.01 361.86 270.61 352.65 270.61 352.65 233.78 325.48 233.78 325.48 270.61 316.26 270.61 316.26 225.01 361.86 225.01"/><polygon class="cls-1" points="361.86 225.01 361.86 270.61 352.65 270.61 352.65 233.78 325.48 233.78 325.48 270.61 316.26 270.61 316.26 225.01 361.86 225.01"/><polygon class="cls-6" points="463.66 252.12 463.66 297.73 454.45 297.73 454.45 260.89 427.28 260.89 427.28 297.73 418.06 297.73 418.06 252.12 463.66 252.12"/><polygon class="cls-1" points="463.66 252.12 463.66 297.73 454.45 297.73 454.45 260.89 427.28 260.89 427.28 297.73 418.06 297.73 418.06 252.12 463.66 252.12"/><polygon class="cls-6" points="527.93 155.92 527.93 201.52 518.73 201.52 518.73 164.69 491.55 164.69 491.55 201.52 482.33 201.52 482.33 155.92 527.93 155.92"/><polygon class="cls-1" points="527.93 155.92 527.93 201.52 518.73 201.52 518.73 164.69 491.55 164.69 491.55 201.52 482.33 201.52 482.33 155.92 527.93 155.92"/><polygon class="cls-6" points="400.7 101.22 400.7 146.82 391.5 146.82 391.5 109.99 364.32 109.99 364.32 146.82 355.1 146.82 355.1 101.22 400.7 101.22"/><polygon class="cls-1" points="400.7 101.22 400.7 146.82 391.5 146.82 391.5 109.99 364.32 109.99 364.32 146.82 355.1 146.82 355.1 101.22 400.7 101.22"/><polygon class="cls-6" points="251.33 57.31 251.33 102.92 242.12 102.92 242.12 66.08 214.95 66.08 214.95 102.92 205.72 102.92 205.72 57.31 251.33 57.31"/><polygon class="cls-1" points="251.33 57.31 251.33 102.92 242.12 102.92 242.12 66.08 214.95 66.08 214.95 102.92 205.72 102.92 205.72 57.31 251.33 57.31"/><polygon class="cls-6" points="126.36 124.54 126.36 170.14 117.15 170.14 117.15 133.31 89.97 133.31 89.97 170.14 80.75 170.14 80.75 124.54 126.36 124.54"/><polygon class="cls-1" points="126.36 124.54 126.36 170.14 117.15 170.14 117.15 133.31 89.97 133.31 89.97 170.14 80.75 170.14 80.75 124.54 126.36 124.54"/></g></svg>